<svg width="61" height="61" viewBox="0 0 61 61" fill="none" xmlns="http://www.w3.org/2000/svg">
<path d="M35.8512 30.8509C35.8512 34.0195 33.2826 36.5881 30.114 36.5881C26.9454 36.5881 24.3769 34.0195 24.3769 30.8509C24.3769 27.6823 26.9454 25.1138 30.114 25.1138C33.2826 25.1138 35.8512 27.6823 35.8512 30.8509Z" fill="#EF6E4B"/>
<path d="M43.5313 20.7006C43.2555 19.9533 42.8155 19.2768 42.2438 18.7216C41.6886 18.1499 41.0126 17.7099 40.2648 17.4341C39.6584 17.1986 38.7473 16.9182 37.0693 16.8418C35.254 16.759 34.7097 16.7412 30.1141 16.7412C25.5181 16.7412 24.9739 16.7586 23.159 16.8414C21.481 16.9182 20.5695 17.1986 19.9634 17.4341C19.2157 17.7099 18.5392 18.1499 17.9844 18.7216C17.4127 19.2768 16.9728 19.9528 16.6965 20.7006C16.461 21.3071 16.1806 22.2186 16.1042 23.8966C16.0214 25.7115 16.0036 26.2557 16.0036 30.8517C16.0036 35.4473 16.0214 35.9916 16.1042 37.8069C16.1806 39.4849 16.461 40.396 16.6965 41.0024C16.9728 41.7502 17.4123 42.4262 17.984 42.9814C18.5392 43.5532 19.2152 43.9931 19.963 44.2689C20.5695 44.5049 21.481 44.7853 23.159 44.8617C24.9739 44.9444 25.5177 44.9618 30.1137 44.9618C34.7102 44.9618 35.2544 44.9444 37.0688 44.8617C38.7469 44.7853 39.6584 44.5049 40.2648 44.2689C41.7659 43.6899 42.9523 42.5035 43.5313 41.0024C43.7669 40.396 44.0472 39.4849 44.1241 37.8069C44.2068 35.9916 44.2242 35.4473 44.2242 30.8517C44.2242 26.2557 44.2068 25.7115 44.1241 23.8966C44.0477 22.2186 43.7673 21.3071 43.5313 20.7006ZM30.1141 39.6894C25.2327 39.6894 21.2756 35.7327 21.2756 30.8513C21.2756 25.9699 25.2327 22.0132 30.1141 22.0132C34.9951 22.0132 38.9522 25.9699 38.9522 30.8513C38.9522 35.7327 34.9951 39.6894 30.1141 39.6894ZM39.3016 23.7292C38.161 23.7292 37.2362 22.8045 37.2362 21.6638C37.2362 20.5231 38.161 19.5984 39.3016 19.5984C40.4423 19.5984 41.3671 20.5231 41.3671 21.6638C41.3666 22.8045 40.4423 23.7292 39.3016 23.7292Z" fill="#EF6E4B"/>
<path d="M30.114 0.876953C13.5626 0.876953 0.14035 14.2992 0.14035 30.8506C0.14035 47.4021 13.5626 60.8243 30.114 60.8243C46.6655 60.8243 60.0877 47.4021 60.0877 30.8506C60.0877 14.2992 46.6655 0.876953 30.114 0.876953ZM47.2217 37.9466C47.1384 39.7788 46.8471 41.0297 46.4217 42.1246C45.5276 44.4366 43.7 46.2642 41.388 47.1583C40.2935 47.5837 39.0422 47.8746 37.2105 47.9583C35.3751 48.042 34.7887 48.0621 30.1145 48.0621C25.4398 48.0621 24.8539 48.042 23.0181 47.9583C21.1863 47.8746 19.935 47.5837 18.8405 47.1583C17.6916 46.7261 16.6516 46.0488 15.7917 45.1729C14.9163 44.3135 14.239 43.273 13.8068 42.1246C13.3814 41.0301 13.0901 39.7788 13.0069 37.9471C12.9222 36.1112 12.9026 35.5249 12.9026 30.8506C12.9026 26.1764 12.9222 25.5901 13.0064 23.7547C13.0896 21.9225 13.3805 20.6716 13.8059 19.5767C14.2381 18.4282 14.9159 17.3877 15.7917 16.5283C16.6511 15.6525 17.6916 14.9751 18.8401 14.5429C19.935 14.1176 21.1859 13.8267 23.0181 13.743C24.8535 13.6593 25.4398 13.6392 30.114 13.6392C34.7883 13.6392 35.3746 13.6593 37.21 13.7435C39.0422 13.8267 40.2931 14.1176 41.388 14.5425C42.5364 14.9747 43.5769 15.6525 44.4368 16.5283C45.3122 17.3882 45.99 18.4282 46.4217 19.5767C46.8475 20.6716 47.1384 21.9225 47.2221 23.7547C47.3058 25.5901 47.3255 26.1764 47.3255 30.8506C47.3255 35.5249 47.3058 36.1112 47.2217 37.9466Z" fill="#EF6E4B"/>
</svg>
