<svg width="61" height="60" viewBox="0 0 61 60" fill="none" xmlns="http://www.w3.org/2000/svg">
<g clip-path="url(#clip0)">
<path d="M31.4153 14.6705L46.9651 22.2342L31.1691 29.9388C31.0635 29.9739 30.958 30.0091 30.8173 30.0091C30.7117 30.0091 30.571 29.9739 30.5007 29.9388L14.9509 22.375L30.7469 14.6705C30.8525 14.6353 30.958 14.6001 31.0987 14.6001C31.2043 14.6001 31.3098 14.6353 31.4153 14.6705Z" fill="#EF6E4B"/>
<path d="M30.2544 0C13.6844 0 0.280701 13.4037 0.280701 29.9737C0.280701 46.5436 13.6844 59.9474 30.2544 59.9474C46.8243 59.9474 60.2281 46.5436 60.2281 29.9737C60.2281 13.4037 46.8243 0 30.2544 0ZM46.4725 46.227H15.7249C12.8401 46.227 10.5182 43.9403 10.5182 41.161V24.4152C10.5182 23.4653 10.7996 22.5506 11.2922 21.7415C11.8199 20.9323 12.5235 20.2991 13.403 19.8769L29.4452 12.0669C29.9729 11.8206 30.5358 11.6799 31.0987 11.6799C31.6616 11.6799 32.2597 11.8206 32.7522 12.0669L48.7944 19.8769C49.674 20.2991 50.3776 20.9323 50.9053 21.7415C51.3978 22.5506 51.6792 23.4653 51.6792 24.4152V41.161C51.6792 43.9403 49.3222 46.227 46.4725 46.227Z" fill="#EF6E4B"/>
</g>
<defs>
<clipPath id="clip0">
<rect width="59.9474" height="59.9474" fill="white" transform="translate(0.280701)"/>
</clipPath>
</defs>
</svg>
