<svg width="189" height="126" viewBox="0 0 189 126" fill="none" xmlns="http://www.w3.org/2000/svg">
<g clip-path="url(#clip0)">
<path d="M0 43.2835C0 42.1426 0.425676 41.1443 1.20608 40.2886C1.98649 39.4329 3.05068 39.0764 4.25676 39.0764C5.53378 39.0764 6.52703 39.4329 7.23649 40.0747C7.94595 40.7878 8.37162 41.7148 8.65541 42.927L12.9831 63.3209L19.2973 43.4975C19.7939 41.8574 20.4324 40.7165 21.2128 40.0747C21.9223 39.4329 22.9155 39.0764 24.1216 39.0764C25.2568 39.0764 26.25 39.4329 26.9595 40.0747C27.7399 40.7165 28.3784 41.8574 28.875 43.4975L35.0473 63.3209L39.5169 42.927C39.8007 41.7148 40.2264 40.7878 40.7939 40.146C41.5034 39.4329 42.5676 39.0051 43.9155 39.0051C45.1926 39.0051 46.2568 39.4329 47.0372 40.2173C47.8176 41.0017 48.1723 42 48.1723 43.2122C48.1723 43.7827 48.0304 44.6384 47.8176 45.6367C47.6047 46.635 47.3919 47.2767 47.3209 47.6333L41.6453 71.1647C41.2196 73.0187 40.7939 74.3022 40.4392 75.0153C39.5878 76.7267 37.9561 77.5824 35.6858 77.5824C32.7061 77.5824 30.6486 76.0136 29.6554 72.8761L24.1216 55.5484L18.5878 72.9474C18.0912 74.5161 17.3108 75.7284 16.3885 76.5128C15.4662 77.2971 14.1892 77.725 12.5574 77.725C10.6419 77.725 9.29392 77.1545 8.37162 76.0849C7.73311 75.2292 7.09459 73.6605 6.52703 71.236L0.851351 47.7046C0.70946 47.0628 0.496622 46.2784 0.283784 45.4941C0.0709459 44.6384 0 43.9253 0 43.2835Z" fill="white"/>
<path d="M49.3784 41.2869C49.3784 39.9321 49.875 38.7199 50.7973 37.7929C51.7196 36.8659 52.9257 36.3667 54.2027 36.3667C55.5507 36.3667 56.7568 36.8659 57.6791 37.7929C58.6014 38.7199 59.098 39.9321 59.098 41.3582C59.098 42.7844 58.6014 43.9253 57.6791 44.9236C56.7568 45.8506 55.5507 46.3498 54.2027 46.3498C52.8548 46.3498 51.6487 45.8506 50.7264 44.9236C49.875 43.854 49.3784 42.6418 49.3784 41.2869ZM51.3649 76.4414C50.5845 75.657 50.2298 74.5874 50.2298 73.3039V52.9813C50.2298 51.7691 50.5845 50.7708 51.3649 49.9151C52.1453 49.0594 53.0676 48.7029 54.3446 48.7029C55.5507 48.7029 56.544 49.1307 57.3244 49.9151C58.1048 50.6995 58.4595 51.7691 58.4595 52.9813V73.3039C58.4595 74.5161 58.1048 75.5857 57.3244 76.3701C56.544 77.2258 55.5507 77.5823 54.3446 77.5823C53.0676 77.6537 52.0744 77.2258 51.3649 76.4414Z" fill="white"/>
<path d="M60.375 74.3735C60.375 73.9457 60.4459 73.5178 60.5878 73.09C60.7297 72.6621 61.0845 72.0917 61.652 71.3073L72.152 56.618H64.9155C63.5676 56.618 62.5034 56.3327 61.723 55.691C60.9426 55.0492 60.5878 54.1222 60.5878 52.7674C60.5878 51.4839 60.9426 50.4856 61.723 49.9151C62.4324 49.2733 63.4966 48.9881 64.9155 48.9881H80.6655C82.0845 48.9881 83.0777 49.3446 83.7872 49.9864C84.2838 50.4856 84.4966 51.1273 84.4966 51.8404C84.4966 52.5535 84.1419 53.3378 83.4324 54.3361L72.223 69.6672H80.8784C82.2264 69.6672 83.2906 69.9524 84.071 70.5942C84.8514 71.236 85.2061 72.163 85.2061 73.4465C85.2061 74.73 84.8514 75.7283 84.071 76.3701C83.2906 77.0119 82.2264 77.2971 80.9493 77.2971H64.277C63.4966 77.2971 63 77.2971 62.6453 77.2258C62.3615 77.1545 62.0068 77.0119 61.5811 76.7266C61.1554 76.5127 60.8716 76.1562 60.6588 75.7996C60.4459 75.4431 60.375 75.0153 60.375 74.3735Z" fill="white"/>
<path d="M86.625 63.107C86.625 58.8998 87.8311 55.4058 90.2432 52.4822C92.6554 49.5586 95.7061 48.1324 99.2534 48.1324C100.885 48.1324 102.233 48.3464 103.297 48.8455C104.361 49.2734 105.355 50.1291 106.348 51.3413C106.703 50.6282 107.128 49.9864 107.696 49.5586C108.405 48.9881 109.257 48.7029 110.179 48.7029C111.385 48.7029 112.378 49.1307 113.088 49.9151C113.868 50.6995 114.223 51.7691 114.223 52.9813V73.3039C114.223 74.5161 113.868 75.5858 113.088 76.3701C112.307 77.2258 111.385 77.5824 110.108 77.5824C109.257 77.5824 108.476 77.2971 107.767 76.798C107.057 76.2988 106.561 75.6571 106.277 74.944C104.574 77.0832 102.233 78.0815 99.2534 78.0815C95.7061 78.0815 92.7264 76.6554 90.3142 73.7318C87.8311 70.8795 86.625 67.3141 86.625 63.107ZM94.7838 63.107C94.7838 65.1749 95.2804 66.815 96.2736 68.1698C97.2669 69.5246 98.6149 70.1664 100.389 70.1664C102.162 70.1664 103.51 69.4533 104.503 68.0985C105.497 66.7437 105.993 65.0323 105.993 63.0357C105.993 61.0391 105.497 59.399 104.574 58.1155C103.51 56.6893 102.091 55.9762 100.389 55.9762C98.6149 55.9762 97.2669 56.618 96.2736 57.9729C95.2804 59.4703 94.7838 61.1104 94.7838 63.107Z" fill="white"/>
<path d="M117.061 73.3039V52.9813C117.061 51.7691 117.416 50.7708 118.196 49.9151C118.976 49.0594 119.899 48.7029 121.176 48.7029C122.169 48.7029 123.091 48.9881 123.872 49.5586C124.51 50.0577 125.007 50.6282 125.291 51.3413C126.071 50.4143 126.922 49.6299 127.774 49.1307C128.767 48.489 129.831 48.2038 130.966 48.1324C132.101 48.1324 133.095 48.5603 133.946 49.3447C134.797 50.2004 135.223 51.1987 135.223 52.4109C135.223 53.7657 134.726 54.764 133.804 55.4058C133.236 55.8336 131.959 56.3328 130.115 56.8319C128.27 57.4024 126.993 58.0442 126.355 58.8998C125.716 59.7555 125.361 61.1104 125.361 63.1783V73.3039C125.361 74.5161 125.007 75.5858 124.226 76.3701C123.446 77.2258 122.453 77.5824 121.247 77.5824C120.041 77.5824 119.047 77.1545 118.338 76.3701C117.416 75.6571 117.061 74.5875 117.061 73.3039Z" fill="white"/>
<path d="M136.5 63.107C136.5 58.8998 137.706 55.4058 140.118 52.4822C142.53 49.5586 145.581 48.1324 149.128 48.1324C150.76 48.1324 152.179 48.3464 153.243 48.8455C154.095 49.202 154.946 49.7012 155.868 50.4856V40.6452C155.868 39.4329 156.223 38.3633 157.003 37.579C157.784 36.7233 158.777 36.3667 159.983 36.3667C161.189 36.3667 162.182 36.7946 162.892 37.6503C163.672 38.5059 164.027 39.5042 164.027 40.7165V73.4465C164.027 74.6588 163.672 75.7284 162.892 76.5127C162.112 77.3684 161.189 77.725 159.912 77.725C159.061 77.725 158.28 77.4397 157.571 76.9406C156.862 76.4414 156.365 75.7997 156.081 75.0866C154.378 77.2258 152.037 78.2241 149.057 78.2241C145.51 78.2241 142.53 76.798 140.118 73.8744C137.706 70.8795 136.5 67.3141 136.5 63.107ZM144.659 63.107C144.659 65.1749 145.155 66.8149 146.149 68.1698C147.142 69.5246 148.49 70.1664 150.264 70.1664C152.037 70.1664 153.385 69.4533 154.378 68.0985C155.372 66.7436 155.868 65.0323 155.868 63.0357C155.868 61.0391 155.372 59.399 154.449 58.1155C153.385 56.6893 151.966 55.9762 150.264 55.9762C148.49 55.9762 147.142 56.618 146.149 57.9728C145.155 59.4703 144.659 61.1104 144.659 63.107Z" fill="white"/>
<path d="M49.7331 105.749C47.8885 105.749 46.4696 105.392 45.6182 104.679C44.6959 103.966 44.1284 103.11 43.9865 102.112C43.7736 101.114 43.9155 100.044 44.2703 98.9032C44.6959 97.7623 45.1926 96.6927 45.902 95.837C45.902 95.7657 45.973 95.6944 46.0439 95.6231C47.4628 93.8404 49.3784 92.343 51.5777 91.2733C53.848 90.1324 56.1892 89.4907 58.6013 89.2767C61.0135 89.0628 63.4257 89.348 65.7669 90.1324C68.1081 90.9168 70.0946 92.343 71.7263 94.2682C74.9189 93.3413 77.4729 92.9134 79.4594 92.9847C81.4459 93.056 82.723 93.9117 83.2196 95.6231C83.4324 96.764 83.3615 97.6197 83.0067 98.3328C82.652 99.0458 82.2973 99.545 81.8007 99.9728C81.5169 100.258 81.304 100.329 81.304 100.329C81.2331 100.329 81.2331 100.329 81.1621 100.329C81.0912 100.258 80.9493 100.187 80.8784 100.115L80.8074 100.044C80.7365 99.6876 80.6655 99.4737 80.5946 99.2598C80.5236 99.1885 80.5236 99.1171 80.4527 99.0458C79.5304 98.4041 78.4662 98.0475 77.3311 97.9762C76.1959 97.9049 75.1317 97.9762 74.0675 98.1188C75.2027 100.971 75.4865 104.251 74.9189 107.888C74.3513 111.525 72.6486 115.304 69.7398 119.226C68.25 121.294 66.3344 122.862 64.1351 124.003C61.9358 125.144 59.5946 125.786 57.3243 126C54.9831 126.143 52.7838 125.857 50.7263 125.073C48.6689 124.289 47.0371 123.005 45.902 121.151C45.4763 120.581 45.2635 119.796 45.3344 119.012C45.4054 118.227 45.6182 117.514 45.902 116.944C46.2567 116.445 46.6824 116.16 47.179 116.231C47.6757 116.302 48.1723 116.873 48.6689 117.942C48.9527 118.869 49.5203 119.582 50.5135 120.153C51.5067 120.723 52.5 121.08 53.4223 121.294C55.054 121.579 56.6149 121.436 58.1757 120.866C59.7365 120.295 61.2263 119.368 62.5743 118.156C63.9223 116.944 65.1284 115.518 66.1926 113.878C67.2567 112.238 68.1081 110.526 68.8175 108.744C69.527 106.961 69.9527 105.178 70.0946 103.467C70.2365 101.756 70.1655 100.187 69.7398 98.7606C67.3277 99.2598 65.0574 99.9728 62.7871 100.971C60.5878 101.898 58.5304 102.825 56.6149 103.681C56.1892 104.964 55.8344 106.319 55.4797 107.745C55.125 109.243 54.7703 110.74 54.5574 112.452C54.3446 113.307 54.2736 114.163 54.2027 115.09C54.2027 116.017 53.9899 116.873 53.5642 117.728C53.4932 118.014 53.3513 118.085 53.1385 118.156C52.9966 118.156 52.8547 118.156 52.7128 118.085C52.2872 118.014 51.7196 117.8 51.0101 117.657C50.3007 117.443 49.7331 117.087 49.3784 116.587C49.0946 116.587 48.9527 116.374 48.9527 115.874C48.8817 115.375 48.8817 114.876 48.8817 114.306C48.8817 113.735 48.9527 113.236 49.0946 112.808C49.1655 112.38 49.2365 112.095 49.3074 112.024C49.5203 111.239 49.804 110.312 50.1588 109.171C50.5135 108.031 50.9392 106.818 51.2939 105.606C50.9392 105.677 50.5844 105.749 50.3007 105.749C50.0878 105.749 49.875 105.749 49.7331 105.749ZM68.3209 95.3379C67.1148 93.5552 65.554 92.4856 63.6385 92.0577C61.723 91.6299 59.8074 91.7725 57.9628 92.343C56.1182 92.9134 54.3446 93.983 52.7838 95.4092C51.223 96.9066 50.2297 98.5467 49.804 100.472C49.7331 101.042 49.7331 101.542 49.875 101.827C50.0169 102.112 50.1588 102.326 50.4426 102.397C50.7263 102.469 51.0101 102.469 51.3649 102.397C51.7196 102.326 52.1453 102.183 52.5709 102.041C53.1385 100.615 53.7061 99.1885 54.3446 97.9049C54.9831 96.6214 55.6216 95.6231 56.1182 94.91C56.1892 94.8387 56.3311 94.6961 56.402 94.5535C56.473 94.4109 56.6858 94.3396 56.8986 94.1969C57.1824 94.0543 57.6081 93.9117 58.1047 93.7691C58.6013 93.6265 59.1689 93.6265 59.6655 93.7691L59.8784 93.983C59.9493 94.0543 59.9493 94.1969 60.0203 94.4109C60.0912 94.5535 60.0203 94.7674 59.9493 95.0526C59.8784 95.3379 59.5946 95.9083 59.1689 96.8353C58.7432 97.7623 58.2466 98.9032 57.75 100.187C59.5236 99.4024 61.2973 98.4754 63.1419 97.5484C65.1993 96.6927 66.8311 95.9083 68.3209 95.3379Z" fill="white"/>
<path d="M91.946 109.956C91.3784 111.097 90.9527 112.309 90.598 113.593C90.1723 114.876 90.0304 116.16 90.0304 117.229C90.0304 118.37 90.3851 119.44 91.0946 120.438L91.2365 120.723C91.3075 120.937 91.3075 121.08 91.2365 121.222C91.1656 121.508 90.8108 121.65 90.2433 121.508C89.321 121.508 88.4696 121.365 87.7601 121.008C87.1926 120.723 86.625 120.295 86.1284 119.654C85.6318 119.012 85.348 118.085 85.348 116.873C84.4966 118.014 83.5034 118.941 82.3682 119.725C81.2331 120.509 79.8851 120.795 78.4662 120.509C77.473 120.295 76.7635 119.868 76.3378 119.297C75.9122 118.655 75.6993 117.942 75.6284 117.087C75.5574 116.231 75.6993 115.304 75.9831 114.306C76.2669 113.307 76.6216 112.309 77.0473 111.382C77.473 110.455 77.9696 109.528 78.4662 108.672C78.9628 107.817 79.3885 107.175 79.8142 106.676C80.5236 105.749 81.375 104.822 82.5101 103.895C83.5743 102.968 84.7095 102.611 85.9155 102.754C86.1284 102.825 86.4122 102.896 86.696 102.968C87.0507 103.039 87.3345 103.182 87.6183 103.467C88.1858 103.895 88.4696 104.394 88.6115 105.036C88.6824 105.677 88.6824 106.319 88.4696 107.032V107.104H88.5406C88.9662 106.747 89.5338 106.676 90.1014 106.961C90.1723 107.032 90.1723 107.032 90.2433 107.032C91.0946 107.46 91.6622 108.102 91.875 108.815C92.0879 109.1 92.0879 109.528 91.946 109.956ZM86.2703 111.81C86.4122 111.239 86.625 110.669 86.7669 110.17C86.9797 109.599 87.1926 109.029 87.4764 108.53C87.1926 108.815 86.9797 109.029 86.696 109.171C86.4122 109.314 86.0574 109.457 85.7027 109.457C85.277 109.457 84.9932 109.385 84.9223 109.243C84.8514 109.029 84.8514 108.815 84.9223 108.458L85.1351 108.244L85.2061 108.173C85.4189 107.888 85.5608 107.531 85.7027 106.961C85.8446 106.391 85.6318 105.963 85.2061 105.677C84.7804 105.392 84.3547 105.464 83.7872 105.82C83.2196 106.177 82.652 106.676 82.1554 107.389C81.5878 108.102 81.0912 108.886 80.6655 109.813C80.2399 110.74 79.8851 111.596 79.7432 112.38C79.6014 113.165 79.6723 113.878 79.8851 114.52C80.1689 115.09 80.6655 115.447 81.5169 115.518C82.0845 115.589 82.723 115.304 83.5743 114.805C84.4257 114.306 85.1351 113.735 85.8446 113.093C85.9155 112.879 85.9865 112.666 86.0574 112.523C86.1284 112.238 86.1993 112.024 86.2703 111.81Z" fill="white"/>
<path d="M105.851 96.1222C105.284 96.9066 104.716 97.7623 104.078 98.8319C103.439 99.9015 102.73 101.042 102.091 102.326C101.382 103.61 100.743 104.964 100.105 106.39C99.4662 107.817 98.8987 109.314 98.402 110.812C98.3311 110.883 98.3311 110.954 98.3311 111.025C98.3311 111.025 98.3311 111.097 98.2601 111.239C98.1183 111.667 97.8345 112.523 97.4797 113.878C97.125 115.233 96.9122 116.516 96.9122 117.871C96.9122 118.441 96.9831 118.869 97.196 119.297C97.3378 119.725 97.4797 120.081 97.4797 120.438C97.4797 120.723 97.3378 120.937 97.125 121.008C96.9122 121.08 96.6993 121.151 96.5574 121.151C96.2737 121.08 95.9189 121.008 95.4933 120.937C94.9966 120.866 94.571 120.652 94.0743 120.295C93.5777 119.939 93.152 119.511 92.8682 118.941C92.5135 118.37 92.3716 117.586 92.3716 116.587C92.3716 115.589 92.5135 114.591 92.7264 113.593C93.0101 112.594 93.223 111.739 93.5068 111.025C93.5777 110.812 93.7906 110.17 94.2162 109.1C94.6419 108.031 95.0676 106.747 95.6351 105.25C96.2027 103.823 96.8412 102.255 97.5507 100.543C98.2601 98.9032 98.9696 97.3345 99.75 95.9083C98.3311 95.9083 96.8412 96.0509 95.4223 96.4075C93.9324 96.764 92.4426 96.9779 90.8818 97.1919C89.3919 97.3345 88.1149 97.3345 87.1216 97.1205C86.1284 96.9779 85.348 96.6214 84.7804 96.2649C84.2128 95.837 83.7872 95.4092 83.5743 94.8387C83.2906 94.3396 83.2196 93.7691 83.2196 93.1986C83.2196 92.9134 83.2905 92.4143 83.5034 91.7012C83.6453 90.9881 84 90.6316 84.4257 90.6316C84.5676 90.6316 84.8514 90.7742 85.2061 90.9881C85.5608 91.2733 86.1284 91.5586 86.9088 91.8438C87.6892 92.2003 88.7534 92.4856 90.0304 92.7708C91.3074 93.056 93.0101 93.1986 94.9966 93.27C96.0608 93.3413 96.6993 93.3413 97.0541 93.3413C97.4088 93.3413 97.6216 93.3413 97.7635 93.27C97.9054 93.27 98.2601 93.1986 98.6149 93.1986C99.0406 93.1986 99.8919 93.1986 101.169 93.27C101.807 92.343 102.375 91.6299 102.872 91.1307C103.368 90.7029 104.22 90.4177 105.426 90.4177C105.355 90.4177 105.426 90.4177 105.709 90.4177C105.993 90.4177 106.348 90.489 106.774 90.6316C107.199 90.7742 107.554 91.0594 107.909 91.416C108.264 91.7725 108.476 92.2717 108.476 92.9134C108.476 93.1273 108.334 93.3413 108.051 93.6978C108.547 93.6978 109.186 93.7691 110.037 93.8404C110.889 93.9117 111.669 94.1256 112.449 94.4109C113.23 94.6961 113.868 95.0526 114.507 95.5518C115.074 96.0509 115.358 96.6214 115.358 97.4058C115.358 98.2615 115.074 98.8319 114.507 99.1172C113.939 99.4024 113.514 99.6163 113.159 99.6876C112.875 99.6876 112.733 99.6163 112.733 99.4024C112.662 98.9032 112.449 98.4041 111.953 97.9762C111.456 97.5484 110.889 97.1919 110.25 96.9066C109.541 96.6214 108.831 96.4075 108.122 96.2649C107.128 96.1222 106.419 96.1222 105.851 96.1222Z" fill="white"/>
<path d="M116.28 111.097C116.564 111.382 116.564 111.739 116.138 112.309C115.713 112.879 115.074 113.806 114.152 114.876C113.23 116.017 112.095 117.015 110.818 118.014C109.541 119.012 108.122 119.725 106.632 120.295C105.142 120.795 103.652 120.866 102.091 120.367C100.672 119.939 99.75 119.155 99.3243 118.014C98.8986 116.873 98.7567 115.66 98.9695 114.306C99.1824 112.951 99.679 111.525 100.459 110.17C101.24 108.744 102.091 107.531 103.084 106.391C103.652 105.749 104.361 105.107 105.071 104.537C105.78 103.966 106.561 103.467 107.341 103.11C108.122 102.754 108.973 102.54 109.753 102.54C110.534 102.54 111.314 102.754 112.024 103.182C112.449 103.467 112.804 103.895 112.946 104.394C113.088 104.893 113.088 105.535 113.017 106.105C112.946 106.747 112.733 107.389 112.378 108.031C112.024 108.672 111.669 109.314 111.243 109.885C110.888 110.384 110.534 110.812 110.179 111.097C109.966 111.311 109.824 111.453 109.682 111.596C109.541 111.739 109.328 111.881 109.115 111.952C108.193 112.666 107.199 113.093 106.277 113.379C105.355 113.593 104.574 113.735 104.007 113.878C103.936 114.947 104.149 115.66 104.574 116.017C105 116.374 105.638 116.587 106.348 116.516C107.057 116.516 107.909 116.302 108.831 115.874C109.753 115.447 110.676 115.019 111.527 114.448C112.378 113.949 113.159 113.379 113.868 112.737C114.578 112.166 115.074 111.596 115.429 111.168C115.5 111.097 115.642 111.025 115.855 110.954C115.997 110.954 116.138 111.025 116.28 111.097ZM104.29 110.812C104.22 111.025 104.149 111.168 104.149 111.382C104.149 111.525 104.078 111.739 104.007 111.952C104.432 111.667 104.858 111.453 105.142 111.239C105.497 111.025 105.78 110.74 105.993 110.526L106.49 110.027C107.057 109.457 107.412 109.029 107.554 108.744C107.909 108.173 108.193 107.603 108.405 107.032C108.618 106.462 108.547 106.034 108.334 105.677C108.193 105.392 107.909 105.392 107.554 105.606C107.199 105.82 106.774 106.177 106.419 106.676C105.993 107.175 105.638 107.817 105.213 108.53C104.787 109.314 104.432 110.027 104.29 110.812Z" fill="white"/>
<path d="M122.453 108.53C122.666 108.387 122.878 108.102 123.162 107.745C123.446 107.389 123.659 106.961 123.872 106.533C124.084 106.105 124.226 105.677 124.226 105.25C124.297 104.822 124.226 104.536 124.084 104.251C123.801 103.966 123.446 104.037 122.949 104.465C122.453 104.893 121.956 105.535 121.459 106.319V106.39L121.389 106.462C121.105 106.961 120.892 107.46 120.75 108.031C120.608 108.601 120.466 109.1 120.395 109.599C120.324 110.098 120.395 110.526 120.608 110.954C120.75 111.382 121.105 111.667 121.459 111.81C121.885 111.952 122.524 112.166 123.233 112.309C123.943 112.523 124.652 112.808 125.361 113.307C126.071 113.806 126.568 114.377 126.993 115.09C127.419 115.803 127.49 116.73 127.206 117.871C126.922 119.012 126.497 119.868 125.787 120.367C125.078 120.866 124.439 121.222 123.73 121.365C122.878 121.579 121.956 121.579 120.963 121.436C118.834 121.08 117.345 120.509 116.493 119.654C115.642 118.798 115.074 117.942 114.861 116.944C114.649 116.017 114.649 115.09 114.791 114.306C115.003 113.521 115.145 112.951 115.287 112.666C115.358 112.38 115.5 112.238 115.642 112.166C115.784 112.095 115.926 112.024 115.997 111.952C116.28 111.952 116.493 112.095 116.706 112.452C116.848 113.165 117.274 113.806 118.054 114.448C118.834 115.09 119.615 115.589 120.466 115.946C121.318 116.374 122.169 116.587 122.949 116.73C123.73 116.801 124.226 116.659 124.51 116.302C124.794 115.874 124.723 115.518 124.297 115.161C123.943 114.805 123.446 114.448 122.878 114.163C122.24 113.806 121.459 113.45 120.537 113.093C119.047 112.666 118.125 112.095 117.628 111.239C117.132 110.384 116.919 109.599 116.919 108.815C116.99 108.173 117.132 107.531 117.416 107.032C117.486 106.89 117.628 106.604 117.841 106.177C118.054 105.749 118.409 105.25 118.764 104.75C119.189 104.251 119.686 103.681 120.324 103.182C120.963 102.683 121.743 102.183 122.595 101.684C122.807 101.613 122.949 101.542 123.091 101.47C123.233 101.399 123.375 101.399 123.517 101.328C124.226 101.042 124.936 100.971 125.574 101.042C126.284 101.114 126.922 101.328 127.561 101.756C128.341 102.183 128.696 102.896 128.696 103.823C128.696 104.75 128.554 105.749 128.128 106.676C127.703 107.674 127.135 108.601 126.355 109.457C125.574 110.312 124.865 110.883 124.084 111.097C123.304 111.382 122.666 111.525 122.311 111.453C121.956 111.382 121.672 111.239 121.601 111.025L121.53 110.954C121.318 110.598 121.318 110.241 121.459 109.813C121.743 109.385 122.027 108.958 122.453 108.53Z" fill="white"/>
<path d="M168.497 13.6197C168.568 13.6197 168.639 13.6197 168.709 13.691C169.135 13.8336 169.49 14.1902 169.561 14.6893L170.341 19.8234L174.953 22.1053C175.378 22.3192 175.662 22.747 175.662 23.2462C175.662 23.7453 175.378 24.1732 174.953 24.3871L170.341 26.7402L169.632 31.8744C169.561 32.3735 169.277 32.7301 168.78 32.8727C168.355 33.0153 167.858 32.8727 167.503 32.5874L163.885 28.8795L158.848 29.8065C158.351 29.8778 157.926 29.7351 157.642 29.3073C157.358 28.9508 157.287 28.3803 157.5 27.9525L159.841 23.3175L157.429 18.7538C157.216 18.326 157.216 17.8268 157.5 17.399C157.784 17.0425 158.28 16.8285 158.706 16.8998L163.814 17.7555L167.361 13.9762C167.645 13.691 168.071 13.5484 168.497 13.6197Z" fill="white"/>
<path d="M160.551 4.63499L161.757 4.84891L161.544 6.06113C161.473 6.77421 161.899 7.41597 162.608 7.48728C163.318 7.55859 163.956 7.13074 164.027 6.41767L164.24 5.20544L165.446 5.41937C166.155 5.49067 166.794 5.06283 166.865 4.34976C166.936 3.63668 166.51 2.99492 165.801 2.92361L164.595 2.70969L164.807 1.49746C164.878 0.784392 164.453 0.142626 163.743 0.0713185C163.034 1.11982e-05 162.395 0.427855 162.324 1.14093L162.111 2.35315L160.905 2.13923C160.196 2.06792 159.557 2.49577 159.486 3.20884C159.416 3.92191 159.841 4.49237 160.551 4.63499Z" fill="white"/>
<path d="M172.895 7.70119C173.601 7.70119 174.172 7.12653 174.172 6.41766C174.172 5.70878 173.601 5.13412 172.895 5.13412C172.19 5.13412 171.618 5.70878 171.618 6.41766C171.618 7.12653 172.19 7.70119 172.895 7.70119Z" fill="white"/>
<path d="M162.041 12.9066C162.746 12.9066 163.318 12.332 163.318 11.6231C163.318 10.9142 162.746 10.3396 162.041 10.3396C161.335 10.3396 160.763 10.9142 160.763 11.6231C160.763 12.332 161.335 12.9066 162.041 12.9066Z" fill="white"/>
<path d="M182.686 20.6078L183.892 20.8217L183.679 22.034C183.608 22.747 184.034 23.3888 184.743 23.4601C185.453 23.5314 186.091 23.1036 186.162 22.3905L186.375 21.1783L187.581 21.3922C188.291 21.4635 188.929 21.0357 189 20.3226C189.071 19.6095 188.645 18.9678 187.936 18.8965L186.73 18.6825L186.943 17.4703C187.013 16.7572 186.588 16.1155 185.878 16.0442C185.169 15.9729 184.53 16.4007 184.459 17.1138L184.247 18.326L183.041 18.1121C182.331 18.0408 181.693 18.4686 181.622 19.1817C181.48 19.8234 181.976 20.4652 182.686 20.6078Z" fill="white"/>
<path d="M175.166 31.3039L176.372 31.5179L176.159 32.7301C176.088 33.4432 176.514 34.0849 177.223 34.1562C177.932 34.2275 178.571 33.7997 178.642 33.0866L178.855 31.8744L180.061 32.0883C180.77 32.1596 181.409 31.7318 181.48 31.0187C181.551 30.3056 181.125 29.6639 180.416 29.5926L179.209 29.3786L179.422 28.1664C179.493 27.4533 179.068 26.8116 178.358 26.7403C177.649 26.669 177.01 27.0968 176.939 27.8099L176.726 29.0221L175.52 28.8082C174.811 28.7369 174.172 29.1647 174.101 29.8778C174.03 30.5909 174.527 31.2326 175.166 31.3039Z" fill="white"/>
<path d="M187.013 29.3073C187.719 29.3073 188.291 28.7326 188.291 28.0238C188.291 27.3149 187.719 26.7402 187.013 26.7402C186.308 26.7402 185.736 27.3149 185.736 28.0238C185.736 28.7326 186.308 29.3073 187.013 29.3073Z" fill="white"/>
<path d="M170.342 19.7521L169.561 14.618C169.49 14.1188 169.136 13.7623 168.71 13.6197C168.639 13.6197 168.568 13.6197 168.497 13.5484C168.071 13.4771 167.717 13.6197 167.433 13.9049L163.886 17.6842L158.777 16.8285C158.281 16.7572 157.855 16.9711 157.571 17.3277C157.288 17.6842 157.288 18.2547 157.5 18.6825L159.913 23.2462L157.571 27.8812C157.359 28.309 157.429 28.8081 157.713 29.236L170.342 19.7521Z" fill="white"/>
</g>
<defs>
<clipPath id="clip0">
<rect width="189" height="126" fill="white"/>
</clipPath>
</defs>
</svg>
