<svg width="724" height="353" viewBox="0 0 724 353" fill="none" xmlns="http://www.w3.org/2000/svg">
<path d="M70.3789 148.465L76.6953 115.078H86.3311L75.9219 162H66.1895L58.5518 130.611L50.9141 162H41.1816L30.7725 115.078H40.4082L46.7568 148.4L54.4912 115.078H62.6768L70.3789 148.465Z" fill="#415A6B"/>
<path d="M100.06 130.934C102.53 127.969 105.635 126.486 109.373 126.486C116.936 126.486 120.771 130.88 120.878 139.667V162H111.564V139.925C111.564 137.927 111.135 136.455 110.275 135.51C109.416 134.543 107.987 134.06 105.989 134.06C103.261 134.06 101.284 135.112 100.06 137.218V162H90.7461V112.5H100.06V130.934Z" fill="#415A6B"/>
<path d="M143.952 162.645C138.839 162.645 134.671 161.076 131.448 157.939C128.247 154.803 126.646 150.624 126.646 145.403V144.501C126.646 140.999 127.323 137.873 128.677 135.123C130.03 132.352 131.942 130.225 134.413 128.742C136.905 127.238 139.741 126.486 142.921 126.486C147.69 126.486 151.439 127.99 154.168 130.998C156.918 134.006 158.293 138.271 158.293 143.792V147.595H136.089C136.39 149.872 137.292 151.698 138.796 153.073C140.321 154.448 142.244 155.136 144.564 155.136C148.152 155.136 150.956 153.836 152.976 151.236L157.552 156.36C156.155 158.337 154.265 159.884 151.88 161.001C149.495 162.097 146.853 162.645 143.952 162.645ZM142.889 134.027C141.041 134.027 139.537 134.65 138.377 135.896C137.238 137.143 136.508 138.926 136.186 141.246H149.141V140.505C149.098 138.442 148.539 136.853 147.465 135.735C146.391 134.597 144.865 134.027 142.889 134.027Z" fill="#415A6B"/>
<path d="M172.183 127.131L172.473 131.159C174.965 128.044 178.306 126.486 182.495 126.486C186.19 126.486 188.94 127.571 190.745 129.741C192.55 131.911 193.474 135.155 193.517 139.474V162H184.203V139.699C184.203 137.723 183.773 136.294 182.914 135.413C182.055 134.511 180.626 134.06 178.628 134.06C176.007 134.06 174.041 135.177 172.73 137.411V162H163.417V127.131H172.183Z" fill="#415A6B"/>
<path d="M233.832 136.219L243.597 115.078H254.167L238.763 144.984V162H228.934V144.984L213.529 115.078H224.132L233.832 136.219Z" fill="#415A6B"/>
<path d="M254.264 144.243C254.264 140.784 254.93 137.701 256.262 134.994C257.594 132.287 259.506 130.192 261.998 128.71C264.512 127.228 267.423 126.486 270.731 126.486C275.437 126.486 279.271 127.926 282.236 130.805C285.223 133.684 286.888 137.594 287.231 142.535L287.296 144.92C287.296 150.27 285.803 154.566 282.816 157.811C279.83 161.033 275.823 162.645 270.796 162.645C265.769 162.645 261.751 161.033 258.743 157.811C255.757 154.588 254.264 150.205 254.264 144.662V144.243ZM263.577 144.92C263.577 148.229 264.2 150.764 265.446 152.525C266.692 154.266 268.476 155.136 270.796 155.136C273.052 155.136 274.813 154.276 276.081 152.558C277.349 150.817 277.982 148.046 277.982 144.243C277.982 140.999 277.349 138.485 276.081 136.702C274.813 134.919 273.03 134.027 270.731 134.027C268.454 134.027 266.692 134.919 265.446 136.702C264.2 138.464 263.577 141.203 263.577 144.92Z" fill="#415A6B"/>
<path d="M313.915 158.455C311.616 161.248 308.437 162.645 304.376 162.645C300.638 162.645 297.78 161.57 295.804 159.422C293.849 157.273 292.85 154.126 292.807 149.979V127.131H302.12V149.657C302.12 153.288 303.774 155.104 307.083 155.104C310.241 155.104 312.411 154.008 313.593 151.816V127.131H322.938V162H314.173L313.915 158.455Z" fill="#415A6B"/>
<path d="M359.645 115.078L371.697 149.109L383.686 115.078H396.383V162H386.683V149.174L387.649 127.034L374.984 162H368.346L355.713 127.066L356.68 149.174V162H347.012V115.078H359.645Z" fill="#415A6B"/>
<path d="M420.263 162.645C415.149 162.645 410.981 161.076 407.759 157.939C404.558 154.803 402.957 150.624 402.957 145.403V144.501C402.957 140.999 403.634 137.873 404.987 135.123C406.341 132.352 408.253 130.225 410.724 128.742C413.216 127.238 416.052 126.486 419.231 126.486C424.001 126.486 427.75 127.99 430.479 130.998C433.229 134.006 434.604 138.271 434.604 143.792V147.595H412.399C412.7 149.872 413.603 151.698 415.106 153.073C416.632 154.448 418.555 155.136 420.875 155.136C424.463 155.136 427.267 153.836 429.286 151.236L433.862 156.36C432.466 158.337 430.575 159.884 428.19 161.001C425.806 162.097 423.163 162.645 420.263 162.645ZM419.199 134.027C417.352 134.027 415.848 134.65 414.688 135.896C413.549 137.143 412.818 138.926 412.496 141.246H425.451V140.505C425.408 138.442 424.85 136.853 423.775 135.735C422.701 134.597 421.176 134.027 419.199 134.027Z" fill="#415A6B"/>
<path d="M455.97 162.645C450.856 162.645 446.688 161.076 443.466 157.939C440.265 154.803 438.664 150.624 438.664 145.403V144.501C438.664 140.999 439.341 137.873 440.694 135.123C442.048 132.352 443.96 130.225 446.431 128.742C448.923 127.238 451.759 126.486 454.938 126.486C459.708 126.486 463.457 127.99 466.186 130.998C468.936 134.006 470.311 138.271 470.311 143.792V147.595H448.106C448.407 149.872 449.31 151.698 450.813 153.073C452.339 154.448 454.262 155.136 456.582 155.136C460.17 155.136 462.974 153.836 464.993 151.236L469.569 156.36C468.173 158.337 466.282 159.884 463.897 161.001C461.513 162.097 458.87 162.645 455.97 162.645ZM454.906 134.027C453.059 134.027 451.555 134.65 450.395 135.896C449.256 137.143 448.525 138.926 448.203 141.246H461.158V140.505C461.115 138.442 460.557 136.853 459.482 135.735C458.408 134.597 456.883 134.027 454.906 134.027Z" fill="#415A6B"/>
<path d="M486.778 118.559V127.131H492.74V133.963H486.778V151.365C486.778 152.654 487.025 153.578 487.52 154.137C488.014 154.695 488.959 154.975 490.355 154.975C491.387 154.975 492.3 154.899 493.095 154.749V161.807C491.269 162.365 489.389 162.645 487.455 162.645C480.924 162.645 477.594 159.347 477.465 152.751V133.963H472.373V127.131H477.465V118.559H486.778Z" fill="#415A6B"/>
<path d="M548.363 122.909H533.99V162H524.322V122.909H510.143V115.078H548.363V122.909Z" fill="#415A6B"/>
<path d="M562.382 130.934C564.853 127.969 567.957 126.486 571.695 126.486C579.258 126.486 583.093 130.88 583.2 139.667V162H573.887V139.925C573.887 137.927 573.457 136.455 572.598 135.51C571.738 134.543 570.31 134.06 568.312 134.06C565.583 134.06 563.606 135.112 562.382 137.218V162H553.068V112.5H562.382V130.934Z" fill="#415A6B"/>
<path d="M606.274 162.645C601.161 162.645 596.993 161.076 593.771 157.939C590.569 154.803 588.969 150.624 588.969 145.403V144.501C588.969 140.999 589.646 137.873 590.999 135.123C592.353 132.352 594.265 130.225 596.735 128.742C599.228 127.238 602.063 126.486 605.243 126.486C610.013 126.486 613.762 127.99 616.49 130.998C619.24 134.006 620.615 138.271 620.615 143.792V147.595H598.411C598.712 149.872 599.614 151.698 601.118 153.073C602.644 154.448 604.566 155.136 606.887 155.136C610.475 155.136 613.278 153.836 615.298 151.236L619.874 156.36C618.478 158.337 616.587 159.884 614.202 161.001C611.817 162.097 609.175 162.645 606.274 162.645ZM605.211 134.027C603.363 134.027 601.859 134.65 600.699 135.896C599.561 137.143 598.83 138.926 598.508 141.246H611.463V140.505C611.42 138.442 610.861 136.853 609.787 135.735C608.713 134.597 607.188 134.027 605.211 134.027Z" fill="#415A6B"/>
<path d="M42.4062 231.233H62.9346V239H32.7383V192.078H42.4062V231.233Z" fill="#415A6B"/>
<path d="M77.7266 239H68.3809V204.131H77.7266V239ZM67.833 195.107C67.833 193.711 68.2949 192.562 69.2188 191.659C70.1641 190.757 71.4424 190.306 73.0537 190.306C74.6436 190.306 75.9111 190.757 76.8564 191.659C77.8018 192.562 78.2744 193.711 78.2744 195.107C78.2744 196.525 77.791 197.686 76.8242 198.588C75.8789 199.49 74.6221 199.941 73.0537 199.941C71.4854 199.941 70.2178 199.49 69.251 198.588C68.3057 197.686 67.833 196.525 67.833 195.107Z" fill="#415A6B"/>
<path d="M98.0938 225.014L94.7422 228.365V239H85.4287V189.5H94.7422V216.925L96.5469 214.604L105.474 204.131H116.656L104.056 218.665L117.752 239H107.053L98.0938 225.014Z" fill="#415A6B"/>
<path d="M136.089 239.645C130.976 239.645 126.808 238.076 123.585 234.939C120.384 231.803 118.783 227.624 118.783 222.403V221.501C118.783 217.999 119.46 214.873 120.813 212.123C122.167 209.352 124.079 207.225 126.55 205.742C129.042 204.238 131.878 203.486 135.058 203.486C139.827 203.486 143.576 204.99 146.305 207.998C149.055 211.006 150.43 215.271 150.43 220.792V224.595H128.226C128.526 226.872 129.429 228.698 130.933 230.073C132.458 231.448 134.381 232.136 136.701 232.136C140.289 232.136 143.093 230.836 145.112 228.236L149.688 233.36C148.292 235.337 146.401 236.884 144.017 238.001C141.632 239.097 138.989 239.645 136.089 239.645ZM135.025 211.027C133.178 211.027 131.674 211.65 130.514 212.896C129.375 214.143 128.645 215.926 128.322 218.246H141.277V217.505C141.234 215.442 140.676 213.853 139.602 212.735C138.527 211.597 137.002 211.027 135.025 211.027Z" fill="#415A6B"/>
<path d="M173.858 222.661H155.715V215.152H173.858V222.661Z" fill="#415A6B"/>
<path d="M194.58 192.078L206.633 226.109L218.621 192.078H231.318V239H221.618V226.174L222.585 204.034L209.92 239H203.281L190.648 204.066L191.615 226.174V239H181.947V192.078H194.58Z" fill="#415A6B"/>
<path d="M248.979 239H239.633V204.131H248.979V239ZM239.085 195.107C239.085 193.711 239.547 192.562 240.471 191.659C241.416 190.757 242.694 190.306 244.306 190.306C245.896 190.306 247.163 190.757 248.108 191.659C249.054 192.562 249.526 193.711 249.526 195.107C249.526 196.525 249.043 197.686 248.076 198.588C247.131 199.49 245.874 199.941 244.306 199.941C242.737 199.941 241.47 199.49 240.503 198.588C239.558 197.686 239.085 196.525 239.085 195.107Z" fill="#415A6B"/>
<path d="M265.253 204.131L265.543 208.159C268.035 205.044 271.376 203.486 275.565 203.486C279.261 203.486 282.011 204.571 283.815 206.741C285.62 208.911 286.544 212.155 286.587 216.474V239H277.273V216.699C277.273 214.723 276.844 213.294 275.984 212.413C275.125 211.511 273.696 211.06 271.698 211.06C269.077 211.06 267.111 212.177 265.801 214.411V239H256.487V204.131H265.253Z" fill="#415A6B"/>
<path d="M304.827 195.559V204.131H310.789V210.963H304.827V228.365C304.827 229.654 305.074 230.578 305.568 231.137C306.062 231.695 307.008 231.975 308.404 231.975C309.436 231.975 310.349 231.899 311.144 231.749V238.807C309.317 239.365 307.438 239.645 305.504 239.645C298.973 239.645 295.643 236.347 295.514 229.751V210.963H290.422V204.131H295.514V195.559H304.827Z" fill="#415A6B"/>
<path d="M332.026 239.645C326.913 239.645 322.745 238.076 319.522 234.939C316.321 231.803 314.721 227.624 314.721 222.403V221.501C314.721 217.999 315.397 214.873 316.751 212.123C318.104 209.352 320.017 207.225 322.487 205.742C324.979 204.238 327.815 203.486 330.995 203.486C335.765 203.486 339.514 204.99 342.242 207.998C344.992 211.006 346.367 215.271 346.367 220.792V224.595H324.163C324.464 226.872 325.366 228.698 326.87 230.073C328.396 231.448 330.318 232.136 332.639 232.136C336.227 232.136 339.03 230.836 341.05 228.236L345.626 233.36C344.229 235.337 342.339 236.884 339.954 238.001C337.569 239.097 334.927 239.645 332.026 239.645ZM330.963 211.027C329.115 211.027 327.611 211.65 326.451 212.896C325.312 214.143 324.582 215.926 324.26 218.246H337.215V217.505C337.172 215.442 336.613 213.853 335.539 212.735C334.465 211.597 332.939 211.027 330.963 211.027Z" fill="#415A6B"/>
<path d="M350.234 221.308C350.234 215.872 351.448 211.543 353.876 208.32C356.325 205.098 359.666 203.486 363.898 203.486C367.293 203.486 370.097 204.754 372.31 207.289V189.5H381.655V239H373.244L372.793 235.294C370.473 238.194 367.486 239.645 363.834 239.645C359.73 239.645 356.433 238.033 353.94 234.811C351.47 231.566 350.234 227.065 350.234 221.308ZM359.548 221.984C359.548 225.25 360.117 227.753 361.256 229.493C362.395 231.233 364.049 232.104 366.219 232.104C369.098 232.104 371.128 230.89 372.31 228.462V214.701C371.149 212.273 369.141 211.06 366.283 211.06C361.793 211.06 359.548 214.701 359.548 221.984Z" fill="#415A6B"/>
<path d="M415.59 222.468V239H405.922V192.078H424.227C427.75 192.078 430.844 192.723 433.508 194.012C436.193 195.301 438.256 197.138 439.695 199.522C441.135 201.886 441.854 204.582 441.854 207.611C441.854 212.209 440.275 215.84 437.117 218.504C433.98 221.146 429.63 222.468 424.065 222.468H415.59ZM415.59 214.637H424.227C426.783 214.637 428.728 214.035 430.06 212.832C431.413 211.629 432.09 209.91 432.09 207.676C432.09 205.377 431.413 203.519 430.06 202.101C428.706 200.683 426.837 199.952 424.452 199.909H415.59V214.637Z" fill="#415A6B"/>
<path d="M463.511 239.645C458.397 239.645 454.229 238.076 451.007 234.939C447.806 231.803 446.205 227.624 446.205 222.403V221.501C446.205 217.999 446.882 214.873 448.235 212.123C449.589 209.352 451.501 207.225 453.972 205.742C456.464 204.238 459.3 203.486 462.479 203.486C467.249 203.486 470.998 204.99 473.727 207.998C476.477 211.006 477.852 215.271 477.852 220.792V224.595H455.647C455.948 226.872 456.851 228.698 458.354 230.073C459.88 231.448 461.803 232.136 464.123 232.136C467.711 232.136 470.515 230.836 472.534 228.236L477.11 233.36C475.714 235.337 473.823 236.884 471.438 238.001C469.054 239.097 466.411 239.645 463.511 239.645ZM462.447 211.027C460.6 211.027 459.096 211.65 457.936 212.896C456.797 214.143 456.066 215.926 455.744 218.246H468.699V217.505C468.656 215.442 468.098 213.853 467.023 212.735C465.949 211.597 464.424 211.027 462.447 211.027Z" fill="#415A6B"/>
<path d="M481.719 221.243C481.719 217.784 482.385 214.701 483.717 211.994C485.049 209.287 486.961 207.192 489.453 205.71C491.967 204.228 494.878 203.486 498.187 203.486C502.892 203.486 506.727 204.926 509.691 207.805C512.678 210.684 514.343 214.594 514.687 219.535L514.751 221.92C514.751 227.27 513.258 231.566 510.271 234.811C507.285 238.033 503.278 239.645 498.251 239.645C493.224 239.645 489.206 238.033 486.198 234.811C483.212 231.588 481.719 227.205 481.719 221.662V221.243ZM491.032 221.92C491.032 225.229 491.655 227.764 492.901 229.525C494.147 231.266 495.931 232.136 498.251 232.136C500.507 232.136 502.269 231.276 503.536 229.558C504.804 227.817 505.438 225.046 505.438 221.243C505.438 217.999 504.804 215.485 503.536 213.702C502.269 211.919 500.485 211.027 498.187 211.027C495.909 211.027 494.147 211.919 492.901 213.702C491.655 215.464 491.032 218.203 491.032 221.92Z" fill="#415A6B"/>
<path d="M551.876 221.888C551.876 227.259 550.651 231.566 548.202 234.811C545.774 238.033 542.487 239.645 538.341 239.645C534.817 239.645 531.971 238.42 529.801 235.971V252.406H520.487V204.131H529.124L529.446 207.547C531.702 204.84 534.646 203.486 538.276 203.486C542.573 203.486 545.914 205.076 548.299 208.256C550.684 211.436 551.876 215.818 551.876 221.404V221.888ZM542.562 221.211C542.562 217.967 541.982 215.464 540.822 213.702C539.684 211.94 538.019 211.06 535.827 211.06C532.905 211.06 530.896 212.177 529.801 214.411V228.688C530.939 230.986 532.97 232.136 535.892 232.136C540.339 232.136 542.562 228.494 542.562 221.211Z" fill="#415A6B"/>
<path d="M567.506 239H558.16V189.5H567.506V239Z" fill="#415A6B"/>
<path d="M591.257 239.645C586.144 239.645 581.976 238.076 578.753 234.939C575.552 231.803 573.951 227.624 573.951 222.403V221.501C573.951 217.999 574.628 214.873 575.981 212.123C577.335 209.352 579.247 207.225 581.718 205.742C584.21 204.238 587.046 203.486 590.226 203.486C594.995 203.486 598.744 204.99 601.473 207.998C604.223 211.006 605.598 215.271 605.598 220.792V224.595H583.394C583.694 226.872 584.597 228.698 586.101 230.073C587.626 231.448 589.549 232.136 591.869 232.136C595.457 232.136 598.261 230.836 600.28 228.236L604.856 233.36C603.46 235.337 601.569 236.884 599.185 238.001C596.8 239.097 594.157 239.645 591.257 239.645ZM590.193 211.027C588.346 211.027 586.842 211.65 585.682 212.896C584.543 214.143 583.812 215.926 583.49 218.246H596.445V217.505C596.402 215.442 595.844 213.853 594.77 212.735C593.695 211.597 592.17 211.027 590.193 211.027Z" fill="#415A6B"/>
<path d="M613.332 250.763L608.466 248.217L609.626 246.122C611.065 243.501 611.807 240.891 611.85 238.291V231.072H619.713L619.681 237.518C619.659 239.902 619.058 242.309 617.876 244.736C616.694 247.164 615.18 249.173 613.332 250.763Z" fill="#415A6B"/>
<path d="M92.293 269.078L104.346 303.109L116.334 269.078H129.031V316H119.331V303.174L120.298 281.034L107.633 316H100.994L88.3613 281.066L89.3281 303.174V316H79.6602V269.078H92.293Z" fill="#415A6B"/>
<path d="M146.691 316H137.346V281.131H146.691V316ZM136.798 272.107C136.798 270.711 137.26 269.562 138.184 268.659C139.129 267.757 140.407 267.306 142.019 267.306C143.608 267.306 144.876 267.757 145.821 268.659C146.767 269.562 147.239 270.711 147.239 272.107C147.239 273.525 146.756 274.686 145.789 275.588C144.844 276.49 143.587 276.941 142.019 276.941C140.45 276.941 139.183 276.49 138.216 275.588C137.271 274.686 136.798 273.525 136.798 272.107Z" fill="#415A6B"/>
<path d="M173.987 289.864C172.72 289.692 171.603 289.606 170.636 289.606C167.112 289.606 164.803 290.799 163.707 293.184V316H154.394V281.131H163.191L163.449 285.288C165.318 282.087 167.907 280.486 171.216 280.486C172.247 280.486 173.214 280.626 174.116 280.905L173.987 289.864Z" fill="#415A6B"/>
<path d="M197.738 316C197.309 315.162 196.997 314.12 196.804 312.874C194.548 315.388 191.615 316.645 188.006 316.645C184.59 316.645 181.754 315.656 179.498 313.68C177.264 311.703 176.146 309.211 176.146 306.203C176.146 302.508 177.511 299.672 180.239 297.695C182.989 295.719 186.953 294.72 192.131 294.698H196.417V292.7C196.417 291.089 195.998 289.8 195.16 288.833C194.344 287.866 193.044 287.383 191.261 287.383C189.692 287.383 188.457 287.759 187.555 288.511C186.674 289.263 186.233 290.294 186.233 291.604H176.92C176.92 289.585 177.543 287.716 178.789 285.997C180.035 284.278 181.797 282.936 184.074 281.969C186.352 280.98 188.908 280.486 191.744 280.486C196.041 280.486 199.446 281.571 201.96 283.741C204.495 285.89 205.763 288.919 205.763 292.829V307.943C205.784 311.252 206.246 313.755 207.148 315.452V316H197.738ZM190.036 309.522C191.411 309.522 192.679 309.222 193.839 308.62C194.999 307.997 195.858 307.17 196.417 306.139V300.145H192.937C188.274 300.145 185.793 301.756 185.492 304.979L185.46 305.526C185.46 306.687 185.868 307.643 186.685 308.395C187.501 309.146 188.618 309.522 190.036 309.522Z" fill="#415A6B"/>
<path d="M227.419 309.136C229.138 309.136 230.534 308.663 231.608 307.718C232.683 306.772 233.241 305.516 233.284 303.947H242.018C241.996 306.311 241.352 308.48 240.084 310.457C238.816 312.412 237.076 313.938 234.863 315.033C232.672 316.107 230.244 316.645 227.58 316.645C222.596 316.645 218.664 315.065 215.785 311.907C212.906 308.728 211.467 304.345 211.467 298.759V298.146C211.467 292.775 212.896 288.489 215.753 285.288C218.61 282.087 222.531 280.486 227.516 280.486C231.877 280.486 235.368 281.732 237.989 284.225C240.632 286.695 241.975 289.993 242.018 294.118H233.284C233.241 292.313 232.683 290.853 231.608 289.735C230.534 288.597 229.116 288.027 227.354 288.027C225.185 288.027 223.541 288.822 222.424 290.412C221.328 291.98 220.78 294.537 220.78 298.082V299.049C220.78 302.637 221.328 305.215 222.424 306.783C223.52 308.352 225.185 309.136 227.419 309.136Z" fill="#415A6B"/>
<path d="M257.164 316H247.818V266.5H257.164V316Z" fill="#415A6B"/>
<path d="M280.915 316.645C275.802 316.645 271.634 315.076 268.411 311.939C265.21 308.803 263.609 304.624 263.609 299.403V298.501C263.609 294.999 264.286 291.873 265.64 289.123C266.993 286.352 268.905 284.225 271.376 282.742C273.868 281.238 276.704 280.486 279.884 280.486C284.653 280.486 288.402 281.99 291.131 284.998C293.881 288.006 295.256 292.271 295.256 297.792V301.595H273.052C273.353 303.872 274.255 305.698 275.759 307.073C277.284 308.448 279.207 309.136 281.527 309.136C285.115 309.136 287.919 307.836 289.938 305.236L294.515 310.36C293.118 312.337 291.228 313.884 288.843 315.001C286.458 316.097 283.815 316.645 280.915 316.645ZM279.852 288.027C278.004 288.027 276.5 288.65 275.34 289.896C274.201 291.143 273.471 292.926 273.148 295.246H286.104V294.505C286.061 292.442 285.502 290.853 284.428 289.735C283.354 288.597 281.828 288.027 279.852 288.027Z" fill="#415A6B"/>
<path d="M355.81 316H346.142V295.891H327.289V316H317.621V269.078H327.289V288.092H346.142V269.078H355.81V316Z" fill="#415A6B"/>
<path d="M383.879 316C383.449 315.162 383.138 314.12 382.944 312.874C380.688 315.388 377.756 316.645 374.146 316.645C370.73 316.645 367.895 315.656 365.639 313.68C363.404 311.703 362.287 309.211 362.287 306.203C362.287 302.508 363.651 299.672 366.38 297.695C369.13 295.719 373.094 294.72 378.271 294.698H382.558V292.7C382.558 291.089 382.139 289.8 381.301 288.833C380.484 287.866 379.185 287.383 377.401 287.383C375.833 287.383 374.598 287.759 373.695 288.511C372.814 289.263 372.374 290.294 372.374 291.604H363.061C363.061 289.585 363.684 287.716 364.93 285.997C366.176 284.278 367.938 282.936 370.215 281.969C372.492 280.98 375.049 280.486 377.885 280.486C382.182 280.486 385.587 281.571 388.101 283.741C390.636 285.89 391.903 288.919 391.903 292.829V307.943C391.925 311.252 392.387 313.755 393.289 315.452V316H383.879ZM376.177 309.522C377.552 309.522 378.819 309.222 379.979 308.62C381.14 307.997 381.999 307.17 382.558 306.139V300.145H379.077C374.415 300.145 371.934 301.756 371.633 304.979L371.601 305.526C371.601 306.687 372.009 307.643 372.825 308.395C373.642 309.146 374.759 309.522 376.177 309.522Z" fill="#415A6B"/>
<path d="M430.446 298.888C430.446 304.259 429.222 308.566 426.772 311.811C424.345 315.033 421.058 316.645 416.911 316.645C413.388 316.645 410.541 315.42 408.371 312.971V329.406H399.058V281.131H407.694L408.017 284.547C410.272 281.84 413.216 280.486 416.847 280.486C421.144 280.486 424.484 282.076 426.869 285.256C429.254 288.436 430.446 292.818 430.446 298.404V298.888ZM421.133 298.211C421.133 294.967 420.553 292.464 419.393 290.702C418.254 288.94 416.589 288.06 414.397 288.06C411.476 288.06 409.467 289.177 408.371 291.411V305.688C409.51 307.986 411.54 309.136 414.462 309.136C418.909 309.136 421.133 305.494 421.133 298.211Z" fill="#415A6B"/>
<path d="M467.636 298.888C467.636 304.259 466.411 308.566 463.962 311.811C461.534 315.033 458.247 316.645 454.101 316.645C450.577 316.645 447.73 315.42 445.561 312.971V329.406H436.247V281.131H444.884L445.206 284.547C447.462 281.84 450.405 280.486 454.036 280.486C458.333 280.486 461.674 282.076 464.059 285.256C466.443 288.436 467.636 292.818 467.636 298.404V298.888ZM458.322 298.211C458.322 294.967 457.742 292.464 456.582 290.702C455.443 288.94 453.778 288.06 451.587 288.06C448.665 288.06 446.656 289.177 445.561 291.411V305.688C446.699 307.986 448.729 309.136 451.651 309.136C456.099 309.136 458.322 305.494 458.322 298.211Z" fill="#415A6B"/>
<path d="M489.485 316.645C484.372 316.645 480.204 315.076 476.981 311.939C473.78 308.803 472.18 304.624 472.18 299.403V298.501C472.18 294.999 472.856 291.873 474.21 289.123C475.563 286.352 477.476 284.225 479.946 282.742C482.438 281.238 485.274 280.486 488.454 280.486C493.224 280.486 496.973 281.99 499.701 284.998C502.451 288.006 503.826 292.271 503.826 297.792V301.595H481.622C481.923 303.872 482.825 305.698 484.329 307.073C485.854 308.448 487.777 309.136 490.098 309.136C493.686 309.136 496.489 307.836 498.509 305.236L503.085 310.36C501.688 312.337 499.798 313.884 497.413 315.001C495.028 316.097 492.386 316.645 489.485 316.645ZM488.422 288.027C486.574 288.027 485.07 288.65 483.91 289.896C482.771 291.143 482.041 292.926 481.719 295.246H494.674V294.505C494.631 292.442 494.072 290.853 492.998 289.735C491.924 288.597 490.398 288.027 488.422 288.027Z" fill="#415A6B"/>
<path d="M517.716 281.131L518.006 285.159C520.498 282.044 523.839 280.486 528.028 280.486C531.724 280.486 534.474 281.571 536.278 283.741C538.083 285.911 539.007 289.155 539.05 293.474V316H529.736V293.699C529.736 291.723 529.307 290.294 528.447 289.413C527.588 288.511 526.159 288.06 524.161 288.06C521.54 288.06 519.574 289.177 518.264 291.411V316H508.95V281.131H517.716Z" fill="#415A6B"/>
<path d="M565.024 306.364C565.024 305.226 564.455 304.334 563.316 303.689C562.199 303.023 560.395 302.433 557.902 301.917C549.609 300.177 545.463 296.653 545.463 291.347C545.463 288.253 546.741 285.675 549.298 283.612C551.876 281.528 555.238 280.486 559.385 280.486C563.811 280.486 567.345 281.528 569.987 283.612C572.651 285.696 573.983 288.403 573.983 291.733H564.67C564.67 290.401 564.24 289.306 563.381 288.446C562.521 287.565 561.179 287.125 559.353 287.125C557.784 287.125 556.57 287.479 555.711 288.188C554.852 288.897 554.422 289.8 554.422 290.896C554.422 291.927 554.905 292.765 555.872 293.409C556.86 294.032 558.515 294.58 560.835 295.053C563.155 295.504 565.11 296.02 566.7 296.6C571.62 298.404 574.08 301.53 574.08 305.978C574.08 309.157 572.716 311.735 569.987 313.712C567.259 315.667 563.735 316.645 559.417 316.645C556.495 316.645 553.896 316.129 551.618 315.098C549.362 314.045 547.59 312.616 546.301 310.812C545.012 308.985 544.367 307.02 544.367 304.914H553.197C553.283 306.568 553.896 307.836 555.034 308.717C556.173 309.598 557.698 310.038 559.61 310.038C561.394 310.038 562.736 309.705 563.639 309.039C564.562 308.352 565.024 307.46 565.024 306.364Z" fill="#415A6B"/>
<g clip-path="url(#clip0)">
<path d="M674.609 52.8666C675.226 53.1346 675.741 53.6381 676.008 54.3135C676.541 55.6643 675.878 57.1919 674.527 57.7251L639.604 71.5111C638.253 72.0443 636.725 71.3814 636.192 70.0306C635.659 68.6798 636.322 67.1523 637.673 66.619L672.596 52.8331C673.271 52.5664 673.991 52.5987 674.609 52.8666Z" fill="#FFB454"/>
<path d="M676.008 54.3135C675.741 53.638 675.226 53.1345 674.609 52.8666C673.991 52.5988 673.271 52.5664 672.596 52.8331L637.673 66.619C636.322 67.1522 635.659 68.6797 636.192 70.0307L676.008 54.3135C676.008 54.3136 676.008 54.3136 676.008 54.3135Z" fill="#FF8659"/>
<path d="M641.005 54.4823C641.13 54.5367 641.252 54.6013 641.37 54.676C642.214 55.2133 642.681 56.1835 642.573 57.1785L641.402 67.9739L649.631 75.0587C650.389 75.7118 650.711 76.7389 650.462 77.7083C650.212 78.6777 649.433 79.421 648.453 79.6259L637.824 81.8482L633.629 91.8641C633.243 92.7874 632.365 93.4111 631.366 93.4729C630.367 93.535 629.419 93.0237 628.922 92.1554L623.524 82.7335L612.702 81.8387C611.704 81.7565 610.84 81.1146 610.473 80.1834C610.105 79.2523 610.298 78.1932 610.97 77.4516L618.263 69.4063L615.77 58.8377C615.54 57.8634 615.883 56.8431 616.655 56.2058C617.427 55.5685 618.495 55.4232 619.407 55.835L629.313 60.2847L638.593 54.6479C639.33 54.1999 640.23 54.146 641.005 54.4823Z" fill="#FFDD54"/>
<path d="M721.05 36.5335C722.117 39.2354 720.791 42.2903 718.089 43.3567L676.506 59.7713C675.155 60.3046 673.628 59.6418 673.094 58.2908L671.163 53.3987C670.63 52.0477 671.293 50.5204 672.644 49.9871L714.227 33.5725C716.929 32.5059 719.984 33.8315 721.05 36.5335Z" fill="#6B61B1"/>
<path d="M629.746 31.9256L632.158 32.9725L631.111 35.3849C630.533 36.7172 631.145 38.266 632.477 38.8442C633.809 39.4223 635.358 38.8109 635.936 37.4786L636.983 35.0662L639.396 36.1131C640.728 36.6913 642.277 36.0799 642.855 34.7476C643.433 33.4153 642.822 31.8665 641.489 31.2883L639.077 30.2414L640.124 27.8291C640.702 26.4968 640.091 24.9479 638.758 24.3698C637.426 23.7916 635.877 24.403 635.299 25.7353L634.252 28.1477L631.84 27.1008C630.507 26.5226 628.959 27.134 628.38 28.4663C627.802 29.7986 628.414 31.3474 629.746 31.9256Z" fill="#FFB454"/>
<path d="M654.917 39.982C653.584 39.4038 652.036 40.0152 651.458 41.3475C650.879 42.6799 651.491 44.2286 652.823 44.8068C654.155 45.385 655.704 44.7736 656.282 43.4413C656.86 42.109 656.249 40.5602 654.917 39.982Z" fill="#FFB454"/>
<path d="M630.034 44.4731C628.702 43.8949 627.153 44.5063 626.575 45.8386C625.997 47.1709 626.608 48.7197 627.94 49.2979C629.273 49.8761 630.822 49.2647 631.4 47.9324C631.978 46.6 631.367 45.0513 630.034 44.4731Z" fill="#FFB454"/>
<path d="M666.078 76.3591L668.49 77.406L667.443 79.8184C666.865 81.1507 667.476 82.6995 668.809 83.2776C670.141 83.8558 671.69 83.2444 672.268 81.9121L673.315 79.4997L675.727 80.5466C677.06 81.1248 678.608 80.5134 679.187 79.1811C679.765 77.8488 679.153 76.3 677.821 75.7218L675.409 74.6749L676.455 72.2625C677.034 70.9302 676.422 69.3814 675.09 68.8032C673.758 68.2251 672.209 68.8365 671.631 70.1688L670.584 72.5812L668.171 71.5343C666.839 70.9561 665.29 71.5675 664.712 72.8998C664.134 74.2321 664.745 75.7809 666.078 76.3591Z" fill="#FFDD54"/>
<path d="M645.049 93.9894L647.461 95.0362L646.414 97.4486C645.836 98.7809 646.448 100.33 647.78 100.908C649.112 101.486 650.661 100.875 651.239 99.5424L652.286 97.13L654.698 98.1769C656.031 98.755 657.58 98.1437 658.158 96.8114C658.736 95.4791 658.125 93.9302 656.792 93.3521L654.38 92.3052L655.427 89.8928C656.005 88.5605 655.393 87.0117 654.061 86.4335C652.729 85.8554 651.18 86.4668 650.602 87.799L649.555 90.2114L647.143 89.1646C645.81 88.5864 644.262 89.1978 643.683 90.5301C643.105 91.8624 643.717 93.4112 645.049 93.9894Z" fill="#FFDD54"/>
<path d="M671.995 91.3493C670.663 90.7711 669.114 91.3825 668.536 92.7148C667.957 94.0471 668.569 95.5959 669.901 96.1741C671.233 96.7523 672.782 96.1409 673.36 94.8086C673.939 93.4762 673.327 91.9275 671.995 91.3493Z" fill="#FFDD54"/>
<path d="M641.402 67.974L642.573 57.1786C642.681 56.1835 642.215 55.2132 641.37 54.676C641.252 54.6013 641.13 54.5367 641.005 54.4823C640.23 54.146 639.33 54.1999 638.593 54.6472L629.312 60.2841L619.407 55.8344C618.495 55.4226 617.427 55.5681 616.655 56.2052C615.883 56.8424 615.54 57.8627 615.77 58.837L618.263 69.4057L610.97 77.451C610.298 78.1926 610.105 79.2517 610.473 80.1827L641.402 67.974Z" fill="#FFB454"/>
<path d="M721.05 36.5335C719.984 33.8315 716.929 32.5058 714.227 33.5725L672.644 49.9871C671.293 50.5204 670.63 52.0477 671.163 53.3987L672.129 55.8449L721.05 36.5335Z" fill="#453D81"/>
</g>
<path d="M20.3066 88.771L26.6294 85.2751L30.1253 91.5979C32.056 95.0898 36.4522 96.3555 39.9441 94.4248C43.436 92.4941 44.7017 88.0979 42.771 84.606L39.2751 78.2832L45.5979 74.7873C49.0898 72.8566 50.3555 68.4604 48.4248 64.9685C46.4941 61.4766 42.0979 60.2109 38.606 62.1416L32.2832 65.6375L28.7873 59.3147C26.8566 55.8228 22.4604 54.5571 18.9685 56.4878C15.4766 58.4185 14.2109 62.8146 16.1416 66.3065L19.6375 72.6294L13.3147 76.1253C9.82281 78.056 8.55711 82.4522 10.4878 85.9441C12.4185 89.436 16.8147 90.7017 20.3066 88.771Z" fill="#FFDD54"/>
<path d="M34.6098 342.56L38.5362 340.389L40.707 344.315C41.9059 346.484 44.6359 347.269 46.8042 346.071C48.9726 344.872 49.7586 342.142 48.5597 339.973L46.3888 336.047L50.3151 333.876C52.4835 332.677 53.2695 329.947 52.0705 327.779C50.8716 325.611 48.1417 324.825 45.9733 326.024L42.047 328.194L39.8761 324.268C38.6772 322.1 35.9473 321.314 33.7789 322.513C31.6106 323.712 30.8246 326.441 32.0235 328.61L34.1944 332.536L30.2681 334.707C28.0997 335.906 27.3137 338.636 28.5126 340.804C29.7115 342.973 32.4415 343.759 34.6098 342.56Z" fill="#FFDD54"/>
<path d="M33.1613 305.19L35.7025 303.785L37.1075 306.326C37.8835 307.729 39.6504 308.238 41.0538 307.462C42.4572 306.686 42.9659 304.919 42.1899 303.516L40.7849 300.975L43.3261 299.57C44.7295 298.794 45.2382 297.027 44.4622 295.624C43.6863 294.22 41.9194 293.711 40.516 294.487L37.9748 295.892L36.5698 293.351C35.7938 291.948 34.027 291.439 32.6236 292.215C31.2202 292.991 30.7115 294.758 31.4874 296.161L32.8925 298.703L30.3513 300.108C28.9479 300.883 28.4392 302.65 29.2151 304.054C29.9911 305.457 31.7579 305.966 33.1613 305.19Z" fill="#FFDD54"/>
<path d="M67.1613 340.19L69.7025 338.785L71.1075 341.326C71.8834 342.729 73.6503 343.238 75.0537 342.462C76.4571 341.686 76.9658 339.919 76.1899 338.516L74.7848 335.975L77.326 334.57C78.7294 333.794 79.2381 332.027 78.4621 330.624C77.6862 329.22 75.9193 328.711 74.5159 329.487L71.9748 330.892L70.5697 328.351C69.7938 326.948 68.0269 326.439 66.6235 327.215C65.2201 327.991 64.7114 329.758 65.4874 331.161L66.8924 333.702L64.3512 335.108C62.9478 335.883 62.4391 337.65 63.2151 339.054C63.991 340.457 65.7579 340.966 67.1613 340.19Z" fill="#FFDD54"/>
<path d="M631.069 311.471L627.225 309.156L629.54 305.313C630.819 303.191 630.134 300.434 628.012 299.155C625.889 297.877 623.132 298.561 621.854 300.684L619.539 304.527L615.696 302.212C613.573 300.933 610.816 301.618 609.538 303.74C608.259 305.863 608.944 308.62 611.066 309.898L614.909 312.213L612.595 316.056C611.316 318.179 612 320.936 614.123 322.214C616.245 323.493 619.002 322.808 620.281 320.686L622.596 316.843L626.439 319.158C628.561 320.436 631.319 319.752 632.597 317.629C633.875 315.507 633.191 312.75 631.069 311.471Z" fill="#FFDD54"/>
<path d="M599.43 331.411L596.942 329.912L598.441 327.425C599.268 326.051 598.825 324.267 597.451 323.439C596.078 322.612 594.293 323.055 593.466 324.429L591.968 326.916L589.48 325.418C588.107 324.59 586.322 325.033 585.495 326.407C584.667 327.781 585.11 329.565 586.484 330.393L588.971 331.891L587.473 334.378C586.646 335.752 587.088 337.536 588.462 338.364C589.836 339.191 591.62 338.748 592.448 337.375L593.946 334.887L596.433 336.385C597.807 337.213 599.592 336.77 600.419 335.396C601.246 334.023 600.803 332.238 599.43 331.411Z" fill="#FFDD54"/>
<path d="M612.741 284.466L610.253 282.968L611.751 280.48C612.579 279.107 612.136 277.322 610.762 276.495C609.389 275.667 607.604 276.11 606.777 277.484L605.278 279.971L602.791 278.473C601.417 277.646 599.633 278.088 598.805 279.462C597.978 280.836 598.421 282.62 599.795 283.448L602.282 284.946L600.784 287.433C599.956 288.807 600.399 290.592 601.773 291.419C603.147 292.246 604.931 291.803 605.759 290.43L607.257 287.942L609.744 289.441C611.118 290.268 612.902 289.825 613.73 288.451C614.557 287.078 614.114 285.293 612.741 284.466Z" fill="#FFDD54"/>
<defs>
<clipPath id="clip0">
<rect width="89.7624" height="89.7624" fill="white" transform="translate(687.343 118.077) rotate(-156.541)"/>
</clipPath>
</defs>
</svg>
