<svg width="592" height="618" viewBox="0 0 592 618" fill="none" xmlns="http://www.w3.org/2000/svg">
<g filter="url(#filter0_i)">
<path d="M117.5 148C137 69 510.5 37.9997 552.5 48C594.5 58.0003 601.556 457.31 578.5 576C555.444 694.691 155.691 513.922 52.0675 539.5C-51.556 565.078 16.5001 237 117.5 148Z" fill="url(#paint0_linear)"/>
</g>
<g clip-path="url(#clip0)">
<path d="M390.685 50.8751C387.249 49.7293 383.584 49.0418 379.918 48.3543C377.628 47.8959 375.337 47.2084 372.817 46.7501C371.442 46.2918 369.839 46.0626 368.464 45.6043H368.235C367.777 45.3751 367.319 45.3751 366.861 45.1459C366.861 43.0834 365.944 40.5626 365.486 38.7292C365.257 38.0417 364.57 37.8126 363.883 37.8126C363.425 35.5209 361.134 33.4584 359.759 31.6251C357.239 28.8751 354.72 26.1251 352.2 23.6042C347.16 18.5625 342.12 13.75 336.393 9.62503C331.124 5.72919 325.168 3.89585 319.212 1.37501C317.838 0.68751 315.547 -0.229158 313.943 0.68751C311.882 1.83335 310.965 4.35418 310.049 6.18752C308.445 8.70836 307.3 11.4584 305.467 14.2084C303.406 17.4167 300.886 20.1667 298.137 22.9167C293.784 27.0417 289.203 30.7084 285.308 35.0626C281.872 38.9584 279.123 44.2293 280.498 49.5001C281.872 54.0834 286.912 56.6043 291.493 55.9168C292.639 55.6876 293.784 55.2293 294.7 54.7709C297.908 52.9376 299.969 49.5001 298.137 45.6043C297.449 44.0001 295.159 42.6251 293.326 43.3126C292.41 43.7709 291.722 44.2293 291.264 44.9168C291.264 44.9168 290.806 46.0626 290.806 46.5209C290.577 47.2084 290.577 47.8959 291.035 48.1251H291.264C291.493 47.8959 291.722 47.6668 291.722 47.4376C291.952 46.7501 292.41 45.6043 293.555 45.6043C294.242 45.6043 294.471 46.2918 294.7 46.7501C295.159 47.6668 294.93 48.8126 294.471 49.7293C294.242 49.9584 294.013 50.4168 293.784 50.6459C293.326 51.3334 292.639 51.5626 291.722 51.7918C290.806 52.0209 289.661 51.7918 288.744 51.5626C286.225 50.8751 284.163 48.8126 284.163 46.2918C284.163 41.7084 290.119 38.2709 293.555 36.6667C300.657 33.4584 308.674 32.7709 315.776 29.5626C316.005 30.4792 316.463 31.3959 316.692 32.3126C317.609 41.0209 318.296 49.7293 321.961 57.7501C321.274 59.3543 321.732 60.5001 322.877 62.1043C320.587 64.6251 318.067 67.146 315.776 69.6668C312.34 73.1043 308.903 76.5418 305.467 79.7502V79.9793V80.2085C305.467 80.2085 305.467 80.2085 305.467 80.4377C305.467 81.1252 306.384 81.8127 307.071 82.271C310.049 83.646 313.485 83.8752 316.692 83.8752C324.481 84.1043 332.27 83.1877 339.829 82.271C353.803 80.4377 366.632 76.771 379.231 70.8126C379.231 70.8126 379.231 70.8126 379.46 70.8126C382.896 69.2085 385.874 67.3751 388.853 64.8543C391.372 62.5626 394.58 60.271 395.038 56.6043C395.496 54.0834 392.976 51.7918 390.685 50.8751Z" fill="black"/>
<path d="M365.486 40.7918C365.715 41.9376 366.403 43.5418 366.403 44.6876C366.174 44.6876 365.944 44.6876 365.944 44.6876C363.196 44.4584 360.447 44.6876 357.469 45.1459C357.01 43.5418 356.552 42.1668 356.094 40.5626C356.094 40.1043 355.865 39.8751 355.865 39.4168C355.865 39.1876 355.865 39.1876 355.865 38.9584C356.323 38.9584 356.552 38.7292 357.01 38.7292C359.072 38.5001 360.905 38.2709 362.966 38.0417C365.028 38.0417 365.028 38.9584 365.486 40.7918Z" fill="#9858A2"/>
<path d="M355.865 39.4168C357.469 38.7293 359.301 38.7293 361.134 38.5001C362.508 38.2709 363.654 38.2709 364.799 38.7293C364.341 38.2709 363.883 38.0417 362.737 38.0417C360.676 38.0417 358.843 38.2709 356.781 38.7293C356.323 38.7293 356.094 38.9584 355.636 38.9584C355.865 39.1876 355.865 39.4168 355.865 39.4168Z" fill="#9858A2"/>
<path d="M356.094 46.7501C354.49 47.2084 352.887 47.6667 351.283 47.8959C349.909 48.1251 348.763 48.5834 347.389 49.0418C346.702 49.2709 346.015 49.5001 345.327 49.7293C344.869 49.9584 344.182 50.1876 343.724 49.9584C342.807 49.5001 342.578 48.5834 342.349 47.6667C341.662 46.2917 340.746 44.6876 340.288 42.8542C340.288 42.6251 340.288 42.1667 340.288 41.9376C340.288 41.7084 340.288 41.7084 340.288 41.4792C341.204 40.1042 346.015 38.5001 347.618 38.0417C348.534 37.8126 350.138 37.1251 351.512 36.8959C352.658 36.6667 354.261 36.4376 355.178 37.3542C355.636 37.8126 355.636 38.7292 355.636 39.1876C355.636 39.4167 355.636 39.6459 355.636 39.8751C355.636 39.8751 355.636 39.8751 355.636 40.1042C355.865 40.7917 356.094 41.4792 356.094 42.1667C356.323 42.6251 356.323 43.3126 356.552 43.7709C356.781 44.2292 357.01 44.9167 357.01 45.3751C357.239 46.2917 356.552 46.5209 356.094 46.7501Z" fill="#F6DDB5"/>
<path d="M316.463 25.4375C316.463 25.2084 316.234 25.4375 316.463 25.4375C316.463 26.8125 316.692 27.9584 316.692 29.1042C316.234 27.7292 315.547 26.3542 315.089 24.9792C314.401 23.375 313.256 19.7084 311.423 19.0209C311.423 19.0209 311.194 19.0209 311.194 19.25C310.507 20.1667 310.507 21.5417 310.507 22.4584H310.736C310.965 20.1667 311.423 18.7917 312.798 21.3125C313.485 22.4584 313.943 23.6042 314.401 24.75C315.089 26.3542 315.776 27.9584 316.234 29.5625C315.776 29.7917 311.652 30.9375 311.194 30.9375C309.362 31.625 307.3 32.0834 305.467 32.5417C301.573 33.6875 297.679 34.6042 294.013 36.2084C289.432 38.0417 283.017 42.6251 283.934 48.3542C284.163 50.8751 287.141 52.2501 289.203 52.7084C290.348 52.9376 291.722 52.9376 292.639 52.4792C293.097 52.2501 293.555 52.0209 294.013 51.7918C295.388 50.6459 296.304 48.8126 295.617 46.9792C295.159 45.8334 293.784 44.9167 292.639 45.8334C292.181 46.0626 291.952 46.7501 291.722 47.2084C291.722 47.2084 291.264 48.3542 291.035 47.8959C291.035 47.6667 291.035 47.6667 291.035 47.4376C291.493 44.4584 294.242 43.7709 296.304 45.1459C297.449 45.8334 297.908 47.2084 298.137 48.5834C298.366 49.9584 298.137 51.3334 297.449 52.2501C297.22 52.9376 296.762 53.3959 296.304 53.8543C295.617 55.0001 293.097 55.4584 292.41 55.6876C290.806 55.9168 288.515 56.1459 286.912 55.2293C284.621 54.3126 282.788 52.4793 281.872 50.4167C280.268 46.7501 281.643 42.8542 283.705 39.6459C286.683 34.6042 291.722 30.7084 296.075 26.8125C300.428 22.9167 304.322 18.5625 307.529 13.75C308.904 11.4583 310.049 8.70833 311.194 6.1875C312.111 4.35416 313.027 1.83332 315.089 1.37499C316.463 1.14582 317.838 1.83332 318.983 2.29166C324.939 4.58333 330.666 6.64583 336.164 10.3125C341.433 13.9792 346.244 18.5625 350.825 23.1459C353.345 25.4375 355.636 27.9584 357.927 30.4792C359.072 31.625 360.218 33 361.134 34.1459C361.821 34.8334 362.05 35.5209 362.737 35.9792C362.508 35.7501 363.883 37.3542 364.112 37.8126C363.196 37.8126 362.05 37.8126 361.134 38.0417C360.676 38.0417 360.447 38.2709 359.988 38.2709H359.759C358.614 38.5001 357.239 38.7292 356.094 38.9584C356.094 38.7292 356.094 38.5001 355.865 38.2709C355.407 37.3542 354.72 37.1251 353.803 37.1251C351.512 36.6667 348.305 38.2709 346.702 38.7292C346.244 38.9584 341.204 40.5626 340.288 42.1667C340.288 42.3959 340.288 42.6251 340.288 42.8542C340.288 43.3126 340.517 43.5417 340.517 44.0001C336.164 46.2917 331.812 49.0417 328.146 52.2501C326.772 53.3959 325.397 54.7709 324.252 56.1459C324.023 56.3751 323.794 56.8334 323.565 57.0626L323.336 57.2918C318.525 46.9792 318.296 35.9792 316.463 25.4375Z" fill="#3B3B3B"/>
<path d="M316.463 25.4375C316.463 25.2084 316.234 25.4375 316.463 25.4375C316.463 26.8125 316.692 27.9584 316.692 29.1042C316.234 27.7292 315.547 26.3542 315.089 24.9792C314.401 23.375 313.256 19.7084 311.423 19.0209C311.423 19.0209 311.194 19.0209 311.194 19.25C310.507 20.1667 310.507 21.5417 310.507 22.4584H310.736C310.965 20.1667 311.423 18.7917 312.798 21.3125C313.485 22.4584 313.943 23.6042 314.401 24.75C315.089 26.3542 315.776 27.9584 316.234 29.5625C315.776 29.7917 311.652 30.9375 311.194 30.9375C309.362 31.625 307.3 32.0834 305.467 32.5417C301.573 33.6875 297.679 34.6042 294.013 36.2084C289.432 38.0417 283.017 42.6251 283.934 48.3542C284.163 50.8751 287.141 52.2501 289.203 52.7084C290.348 52.9376 291.722 52.9376 292.639 52.4792C293.097 52.2501 293.555 52.0209 294.013 51.7918C295.388 50.6459 296.304 48.8126 295.617 46.9792C295.159 45.8334 293.784 44.9167 292.639 45.8334C292.181 46.0626 291.952 46.7501 291.722 47.2084C291.722 47.2084 291.264 48.3542 291.035 47.8959C291.035 47.6667 291.035 47.6667 291.035 47.4376C291.493 44.4584 294.242 43.7709 296.304 45.1459C297.449 45.8334 297.908 47.2084 298.137 48.5834C298.366 49.9584 298.137 51.3334 297.449 52.2501C297.22 52.9376 296.762 53.3959 296.304 53.8543C295.617 55.0001 293.097 55.4584 292.41 55.6876C290.806 55.9168 288.515 56.1459 286.912 55.2293C284.621 54.3126 282.788 52.4793 281.872 50.4167C280.268 46.7501 281.643 42.8542 283.705 39.6459C286.683 34.6042 291.722 30.7084 296.075 26.8125C300.428 22.9167 304.322 18.5625 307.529 13.75C308.904 11.4583 310.049 8.70833 311.194 6.1875C312.111 4.35416 313.027 1.83332 315.089 1.37499C316.463 1.14582 317.838 1.83332 318.983 2.29166C324.939 4.58333 330.666 6.64583 336.164 10.3125C341.433 13.9792 346.244 18.5625 350.825 23.1459C353.345 25.4375 355.636 27.9584 357.927 30.4792C359.072 31.625 360.218 33 361.134 34.1459C361.821 34.8334 362.05 35.5209 362.737 35.9792C362.508 35.7501 363.883 37.3542 364.112 37.8126C363.196 37.8126 362.05 37.8126 361.134 38.0417C360.676 38.0417 360.447 38.2709 359.988 38.2709H359.759C358.614 38.5001 357.239 38.7292 356.094 38.9584C356.094 38.7292 356.094 38.5001 355.865 38.2709C355.407 37.3542 354.72 37.1251 353.803 37.1251C351.512 36.6667 348.305 38.2709 346.702 38.7292C346.244 38.9584 341.204 40.5626 340.288 42.1667C340.288 42.3959 340.288 42.6251 340.288 42.8542C340.288 43.3126 340.517 43.5417 340.517 44.0001C336.164 46.2917 331.812 49.0417 328.146 52.2501C326.772 53.3959 325.397 54.7709 324.252 56.1459C324.023 56.3751 323.794 56.8334 323.565 57.0626L323.336 57.2918C318.525 46.9792 318.296 35.9792 316.463 25.4375Z" fill="#3B3B3B"/>
<path d="M281.185 44.2292C282.33 39.4167 285.766 35.2917 289.432 31.8542C293.326 28.4167 297.679 25.4375 301.802 22C303.635 20.625 306.384 18.3333 306.384 15.8125C306.384 14.4375 309.133 14.4375 310.507 14.2083C309.591 13.9792 308.445 14.2083 307.758 13.75C307.758 13.75 307.529 13.5208 307.758 13.5208C308.216 12.6042 308.903 11.9167 309.362 11C309.82 9.85416 310.278 8.70833 310.736 7.56249C311.423 5.72916 311.652 3.66665 312.798 2.29165C313.027 1.83331 313.485 1.37498 313.943 1.14581C312.34 2.06248 311.423 4.12499 310.736 5.72916C309.591 8.24999 308.445 10.7708 307.071 13.2917C304.093 18.3333 299.969 22.4584 295.617 26.3542C291.264 30.25 286.454 33.9167 283.247 39.1876C281.872 41.4792 280.727 44.2292 280.727 46.7501C280.956 45.6042 280.956 44.9167 281.185 44.2292Z" fill="#3B3B3B"/>
<path d="M318.983 43.3126C319.67 47.896 320.816 52.7085 322.648 57.0626L322.877 56.8335C323.106 56.6043 323.336 56.146 323.565 55.9168C323.794 55.6876 324.023 55.4585 324.252 55.2293C321.503 52.021 319.899 47.4376 318.983 43.3126Z" fill="#3B3B3B"/>
<path d="M311.423 19.0209C313.256 19.7084 314.401 23.375 315.089 24.9792C315.776 26.3542 316.234 27.7292 316.692 29.1042C316.463 27.9584 316.463 26.5834 316.234 25.4375C316.234 25.4375 316.234 25.2084 316.463 25.4375C317.15 29.1042 317.609 33.0001 318.067 36.6667C318.296 34.3751 318.983 32.3126 319.212 30.0209C319.67 26.8125 319.212 24.0625 317.609 21.5417C316.921 20.625 316.463 19.7084 316.005 18.7917C315.547 17.875 314.86 17.1875 313.943 16.9584C314.401 17.875 315.089 18.7917 315.547 19.7084C316.005 20.625 316.005 21.5417 316.234 22.4584C316.234 22.6875 316.005 22.9167 315.776 22.6875C314.401 19.9375 311.882 16.5 308.903 16.0417C309.82 18.3334 309.82 20.8542 310.049 23.375C310.278 25.2084 310.507 27.2709 309.133 28.4167C307.529 29.7917 305.467 30.25 303.635 30.9375C301.115 31.6251 298.366 32.3126 295.846 33.2292C291.035 34.8334 285.537 37.5834 283.476 42.6251C281.872 46.2917 282.101 50.4168 284.392 53.3959C285.079 53.8543 285.766 54.3126 286.683 54.5418C288.057 55.4584 290.577 55.2293 292.181 55.0001C293.097 54.7709 295.617 54.3126 296.075 53.1668C296.533 52.7084 296.991 52.2501 297.22 51.5626C297.908 50.4168 298.366 49.2709 297.908 47.8959C297.679 46.7501 297.22 45.3751 296.075 44.4584C294.013 43.0834 291.264 43.7709 290.806 46.7501C290.806 46.9792 290.806 46.9792 290.806 47.2084C291.035 47.6667 291.493 46.5209 291.493 46.5209C291.722 46.0626 291.952 45.3751 292.41 45.1459C293.555 44.4584 294.93 45.1459 295.388 46.2917C296.075 48.1251 295.159 49.9584 293.784 51.1043C293.326 51.3334 292.868 51.5626 292.41 51.7918C291.264 52.2501 290.119 52.4793 288.974 52.0209C286.912 51.5626 283.934 50.1876 283.705 47.6667C283.017 41.9376 289.432 37.3542 293.784 35.5209C297.449 33.9167 301.344 33.0001 305.238 31.8542C307.071 31.3959 309.133 30.7084 310.965 30.25C311.423 30.0209 315.318 29.1042 316.005 28.875C315.547 27.2709 314.86 25.6667 314.172 24.0625C313.714 22.9167 313.256 21.7709 312.569 20.625C311.194 18.1042 310.736 19.4792 310.507 21.7709C310.507 21.7709 310.278 22 310.278 21.7709C310.278 20.625 310.278 19.4792 310.965 18.5625C311.194 19.0209 311.423 19.0209 311.423 19.0209Z" fill="#3B3B3B"/>
<path opacity="0.4" d="M362.508 35.5209C362.05 34.8334 361.592 34.3751 360.905 33.6876C359.759 32.3126 358.843 31.1667 357.698 30.0209C355.407 27.5001 352.887 24.9792 350.596 22.6876C346.015 18.1042 341.204 13.75 335.935 9.85419C330.666 6.18752 324.71 4.12501 318.754 1.83334C317.609 1.37501 316.005 0.687507 314.86 0.916674C313.714 1.14584 312.798 2.06251 312.111 3.20835C312.798 2.97918 313.485 2.97918 314.401 3.43751C315.776 4.12501 316.921 4.81252 318.296 5.50002C328.146 11 338.913 17.6459 344.411 27.9584C345.098 29.1042 345.556 30.4792 346.244 31.6251C346.702 32.5417 347.16 33.9167 347.16 34.8334C347.16 35.7501 345.785 36.4376 345.098 36.8959C343.495 37.8126 341.662 38.7293 340.058 39.4168C338.913 39.8751 337.768 40.3334 336.622 41.0209C337.08 41.4793 337.539 41.9376 337.997 42.3959C337.997 42.3959 337.997 42.6251 337.997 42.8543C334.331 44.6876 330.666 46.5209 327.688 49.5001C325.626 51.7918 324.023 54.3126 322.877 57.0626C322.877 57.2918 322.877 57.2918 323.106 57.521L323.336 57.2918C323.565 57.0626 323.794 56.6043 324.023 56.3751C325.168 55.0001 326.543 53.6251 327.917 52.4793C331.812 49.2709 335.935 46.2918 340.288 44.2293C340.058 44.0001 340.058 43.5418 340.058 43.0834C340.058 42.8543 340.058 42.3959 340.058 42.3959C341.204 40.7918 346.015 38.9584 346.473 38.9584C348.076 38.2709 351.512 36.8959 353.574 37.3542C354.49 37.3542 355.178 37.3543 355.636 38.5001C355.636 38.7293 355.865 38.9584 355.865 39.1876C357.01 38.9584 358.385 38.7293 359.53 38.5001H359.759C360.218 38.5001 360.447 38.2709 360.905 38.2709C361.821 38.0418 362.966 38.0418 363.883 38.0418C363.425 36.8959 362.05 35.2917 362.508 35.5209Z" fill="#3B3B3B"/>
<path d="M322.648 57.9793C322.648 57.7501 322.877 57.7501 322.648 57.9793C322.648 57.9793 322.648 57.7501 322.877 57.7501C323.565 56.6043 324.71 55.4584 325.397 54.5418C326.772 52.9376 328.604 51.5626 330.208 50.4168C333.186 48.1251 336.622 46.0626 340.058 44.2292C340.746 45.8334 341.433 47.6668 342.349 49.2709C341.433 49.7293 340.517 49.9584 339.6 50.4168C334.102 52.7084 329.521 56.1459 325.168 60.0418C324.71 60.7293 323.565 61.8751 323.336 62.1043C323.336 62.1043 323.336 62.1043 323.106 62.3335C322.877 60.7293 321.961 59.3543 322.648 57.9793Z" fill="#9858A2"/>
<path d="M322.648 59.3543C322.877 58.4376 323.565 57.7501 324.023 57.0626C325.397 55.2293 327.23 53.6251 329.063 52.2501C332.27 49.5001 335.935 46.9792 339.6 44.6876C336.393 46.2917 333.186 48.3542 330.437 50.4167C328.833 51.7917 327.001 52.9376 325.626 54.5417C324.71 55.4584 323.565 56.6043 323.106 57.7501V57.9793C322.419 58.4376 322.419 58.8959 322.648 59.3543C322.419 59.3543 322.419 59.3543 322.648 59.3543Z" fill="#9858A2"/>
<path d="M315.318 71.271C318.067 68.2918 321.274 65.3126 323.794 62.1043C324.023 61.8751 325.397 60.0418 325.626 60.0418C326.084 59.5834 326.772 59.1251 327.23 58.6668C330.895 55.6876 335.248 52.7084 339.6 50.8751C340.517 50.4167 341.662 50.1876 342.578 49.7292C342.578 49.9584 342.807 49.9584 342.807 50.1876C343.036 50.1876 343.036 50.4167 343.265 50.4167C343.265 50.4167 343.495 50.4167 343.724 50.4167C343.953 50.4167 344.182 50.4167 344.411 50.4167C346.473 49.7292 348.763 49.0417 350.825 48.3542C352.658 47.8959 354.72 47.6667 356.323 46.9792C356.552 46.9792 357.01 46.7501 357.239 46.5209C357.468 46.2917 357.468 46.0626 357.468 45.8334C357.698 45.8334 357.927 45.8334 357.927 45.8334C360.905 45.6042 364.112 45.3751 367.09 45.3751C370.526 46.5209 374.191 47.4376 377.628 48.3542C379.689 48.8126 381.751 49.0417 383.813 49.5001C384.271 49.5001 384.958 49.7292 385.416 49.9584C384.271 49.9584 383.125 49.9584 382.209 49.9584C376.482 49.7292 370.755 52.9376 366.174 55.6876C358.614 59.8126 351.741 65.0834 344.182 69.2084C336.164 73.5626 327.688 76.3126 318.754 77.4585C315.089 77.9168 311.194 78.146 307.529 79.0626C307.3 79.0626 307.3 79.0626 307.071 79.0626C310.278 76.771 312.798 73.7918 315.318 71.271Z" fill="#3B3B3B"/>
<path opacity="0.4" d="M384.042 49.2709C381.98 48.8126 379.918 48.5834 377.857 48.1251C374.42 47.4376 370.755 46.2918 367.319 45.1459C364.341 45.1459 361.134 45.1459 358.156 45.6043C357.927 45.6043 357.698 45.6043 357.698 45.6043C357.698 45.8334 357.698 46.0626 357.469 46.2918C357.239 46.5209 357.01 46.7501 356.552 46.7501C354.949 47.4376 352.887 47.6668 351.054 48.1251C348.993 48.8126 346.702 49.5001 344.64 50.1876C344.411 50.1876 344.182 50.1876 343.953 50.1876C343.724 50.1876 343.724 50.1876 343.495 50.1876C343.266 50.1876 343.266 49.9584 343.036 49.9584C343.036 49.7293 342.807 49.7293 342.807 49.5001C341.891 49.9584 340.746 50.1876 339.829 50.6459C335.248 52.4793 331.124 55.4585 327.459 58.4376C327.001 58.896 326.314 59.3543 325.855 59.8126C325.626 60.0418 324.252 61.646 324.023 61.8751C324.023 61.8751 324.023 61.8751 324.023 62.1043C325.626 60.7293 327.23 59.5835 329.063 58.2085C332.728 55.6876 336.851 53.396 340.975 51.7918C341.204 51.7918 341.433 52.0209 341.204 52.2501C340.058 53.1668 338.913 54.3126 337.997 55.6876C341.891 53.396 346.244 52.0209 350.596 51.3334C353.116 50.8751 355.636 50.4168 358.385 50.1876C360.447 49.9584 362.737 49.5001 364.799 49.9584C365.028 49.9584 365.028 50.1876 364.799 50.4168C360.905 55.2293 355.636 58.896 350.596 62.3335C345.556 65.771 340.058 68.9793 334.102 71.271C328.604 73.3335 322.648 74.4793 316.921 75.6252C314.401 76.0835 311.882 76.5418 309.591 77.6877C309.133 78.146 308.445 78.6043 307.987 79.0627C308.216 79.0627 308.216 79.0627 308.445 79.0627C312.111 78.146 315.776 77.9168 319.67 77.4585C328.604 76.3127 337.08 73.5627 345.098 69.2085C352.658 65.0835 359.53 60.0418 367.09 55.6876C371.671 52.9376 377.628 49.7293 383.125 49.9584C384.271 49.7293 385.416 49.7293 386.333 49.9584C385.187 49.5001 384.5 49.5001 384.042 49.2709Z" fill="#3B3B3B"/>
<path d="M388.165 65.0835C386.104 66.9168 383.813 68.2918 381.293 69.4376C375.795 71.9585 370.297 74.7085 364.57 76.5418C357.698 78.8335 350.825 80.2085 343.724 81.3543C336.851 82.5002 329.979 83.1877 322.877 83.4168C319.212 83.646 315.547 83.646 312.111 83.1877C310.736 82.9585 309.362 82.7293 308.216 82.271C306.842 81.8127 306.613 81.3543 306.384 80.2085C307.3 79.2918 310.278 79.0627 310.736 78.8335C312.569 78.6043 314.63 78.3752 316.463 78.146C319.899 77.6877 323.565 77.2293 327.001 76.3127C333.644 74.7085 340.058 71.9585 346.015 68.7501C352.658 65.0835 358.614 60.7293 365.028 57.0626C368.235 55.2293 371.442 53.3959 375.108 52.2501C376.253 51.7918 377.399 51.5626 378.773 51.1043C379.918 50.8751 381.064 50.6459 382.209 50.4168C383.584 50.1876 385.416 50.1876 386.791 50.6459C389.769 51.1043 392.747 52.2501 394.35 55.2293C396.412 58.6668 390.685 62.7918 388.165 65.0835Z" fill="#535353"/>
<path opacity="0.4" d="M310.049 79.0626C312.569 79.7501 315.089 80.2085 317.609 80.6668C323.336 81.3543 329.292 80.896 335.019 79.9793C341.662 78.8335 348.534 77.2293 354.949 74.9376C361.592 72.646 367.319 68.9793 372.817 64.8543C375.337 63.0209 378.086 61.1876 380.147 58.6668C381.293 57.5209 382.209 56.1459 382.896 54.5418C383.355 53.6251 383.584 52.7084 383.355 51.7918C383.125 51.1043 382.438 50.6459 381.522 50.4167C380.377 50.6459 379.46 50.8751 378.315 51.1042C377.169 51.3334 375.795 51.7917 374.65 52.2501C371.213 53.6251 367.777 55.2293 364.57 57.0626C358.156 60.9584 351.971 65.0834 345.556 68.7501C339.6 72.1876 333.186 74.9376 326.543 76.3126C323.107 77.0001 319.441 77.6876 316.005 78.146C314.172 78.3751 312.111 78.6043 310.278 78.8335C310.507 78.8335 310.278 78.8335 310.049 79.0626Z" fill="#3B3B3B"/>
<path d="M394.121 54.7709C393.205 53.1668 391.831 52.0209 390.227 51.3334C396.87 60.271 381.293 68.7501 374.879 71.7293C368.923 74.7085 362.508 77.0002 356.094 79.0627C355.865 79.0627 355.865 79.0627 355.636 79.2918C358.614 78.6043 361.592 77.6877 364.57 76.771C370.297 74.9377 375.795 72.1876 381.293 69.6668C383.813 68.521 386.104 67.146 388.165 65.3126C390.685 62.7918 396.412 58.6668 394.121 54.7709Z" fill="#535353"/>
<path d="M355.178 45.3751C355.407 44.6876 355.407 44.0001 355.178 43.3126V43.0834C354.949 42.6251 354.949 42.1668 354.72 41.7084C354.491 40.1043 354.261 38.0417 352.429 38.0417C351.283 38.0417 349.909 38.5001 348.763 38.7292C347.389 38.9584 346.244 39.6459 344.869 40.1043C344.182 40.3334 342.349 41.0209 341.662 41.9376C340.975 42.8543 341.662 44.0001 342.12 44.9168C342.578 46.2918 343.036 49.0418 345.098 48.5834C346.015 48.3543 347.16 47.8959 348.076 47.6668C349.222 47.2084 350.367 46.9793 351.742 46.5209C352.887 46.2918 354.491 46.2918 355.178 45.3751Z" fill="black"/>
<path d="M354.949 45.1459C354.72 45.6043 354.261 45.6043 353.803 45.8334C352.887 46.0626 352.2 46.0626 351.283 46.2918C349.909 46.7501 348.534 47.2084 346.931 47.8959C346.244 48.1251 345.556 48.3543 344.869 48.3543C343.724 48.5834 343.495 47.2084 343.266 46.2918C343.036 45.6043 342.807 45.1459 342.578 44.4584C342.349 43.7709 341.662 42.6251 341.891 41.9376C342.349 41.2501 343.266 41.0209 343.724 40.7917C344.411 40.5626 345.098 40.1042 346.015 39.8751C347.618 39.1876 349.451 38.7292 351.054 38.5001C351.742 38.2709 352.658 38.0417 353.345 38.9584C353.345 38.9584 353.345 38.9584 353.345 39.1876C353.803 40.1042 354.032 41.2501 354.261 42.1668C354.49 42.8543 354.949 43.7709 354.72 44.6876C355.178 44.6876 355.178 44.9168 354.949 45.1459Z" fill="#9858A2"/>
<path d="M342.807 41.9376C343.724 41.2501 344.869 40.7918 346.015 40.3334C347.618 39.6459 349.222 38.9584 351.054 38.7293C351.742 38.5001 352.429 38.2709 353.116 38.2709C352.658 38.0418 351.971 38.0418 351.283 38.2709C349.451 38.5001 347.847 38.9584 346.244 39.6459C345.556 39.8751 344.64 40.3334 343.953 40.5626C343.495 40.7918 342.349 41.2501 342.12 41.7084C342.12 41.9376 342.12 42.3959 342.12 42.8543C342.12 42.6251 342.349 42.3959 342.807 41.9376Z" fill="#9858A2"/>
<path d="M365.715 40.7918C365.486 39.4168 365.257 38.5001 364.341 38.2709C364.57 39.4168 365.486 40.5626 364.57 41.4793C363.654 42.3959 361.592 41.9376 360.447 42.1668C359.301 42.3959 358.156 42.6251 357.239 41.7084C356.781 41.0209 356.552 40.3334 356.094 39.6459C356.094 39.8751 356.323 40.3334 356.323 40.5626C356.781 42.1668 357.239 43.5418 357.698 45.146C360.447 44.6876 363.196 44.6876 366.174 44.6876C366.403 44.6876 366.632 44.6876 366.632 44.6876C366.632 43.5418 365.945 41.9376 365.715 40.7918Z" fill="#9858A2"/>
<path d="M340.058 44.2292C339.6 44.4584 339.142 44.6876 338.684 44.9168C339.142 45.6043 339.371 46.2918 339.6 47.2084V47.4376C337.08 48.8126 334.561 50.4168 332.27 52.2501C330.437 53.6251 328.604 55.2293 327.001 57.0626C326.085 57.9793 324.71 60.0418 323.336 60.0418C322.877 60.0418 322.648 59.8126 322.419 59.5834C322.419 60.5001 323.106 61.4168 323.336 62.3335C323.336 62.3335 323.336 62.3335 323.565 62.1043C323.565 62.1043 324.939 60.7293 325.397 60.0418C329.75 56.1459 334.331 52.7084 339.829 50.4168C340.746 49.9584 341.662 49.7293 342.578 49.2709C341.662 47.4376 340.746 45.8334 340.058 44.2292Z" fill="#9858A2"/>
<path d="M354.949 44.6876C354.949 44.0001 354.49 42.8543 354.49 42.1668C354.261 41.7084 354.261 41.2501 354.261 40.7917C354.261 41.2501 354.261 41.7084 354.032 42.1668C352.887 43.7709 350.367 43.0834 348.763 44.0001C347.389 44.6876 345.556 46.2918 343.953 45.6043C343.495 45.3751 343.266 45.1459 342.807 44.6876V44.9168C343.036 45.6043 343.266 46.0626 343.495 46.7501C343.724 47.4376 344.182 49.0418 345.098 48.8126C345.785 48.5834 346.473 48.5834 347.16 48.3543C348.534 47.8959 349.909 47.2084 351.512 46.7501C352.2 46.5209 353.116 46.5209 354.032 46.2918C354.49 46.2918 354.949 46.0626 355.178 45.6043C355.178 45.1459 355.178 44.9168 354.949 44.6876Z" fill="#9858A2"/>
<path d="M374.42 55.6877C374.42 55.6877 361.134 46.521 341.662 53.6252C322.19 60.5002 317.838 86.8544 322.648 108.167C327.459 129.479 300.657 202.355 300.657 202.355C300.657 202.355 314.63 222.063 363.425 214.5C363.425 214.5 399.848 148.5 397.099 100.834C394.35 53.396 374.42 55.6877 374.42 55.6877Z" fill="#0E3944"/>
<path d="M387.478 131.084C405.804 125.125 417.029 140.479 427.567 168.896C438.105 197.313 441.541 200.063 441.541 200.063L482.088 226.188L478.652 241.313C478.652 241.313 440.166 226.188 430.774 216.563C421.382 206.938 394.58 158.354 394.58 158.354L387.478 131.084Z" fill="#EF6E4B"/>
<path d="M298.137 314.647C298.137 314.647 290.119 354.98 291.493 415.48C291.493 415.48 260.109 461.772 285.995 593.543H299.511C299.511 593.543 310.507 481.251 318.983 451.001C327.459 420.522 358.843 411.355 360.447 318.772L298.137 314.647Z" fill="#FF8B66"/>
<path d="M236.056 433.126C228.267 407.23 207.879 363.688 155.878 304.563C155.878 304.563 152.671 302.959 148.547 305.48C144.195 308.23 144.195 311.438 144.195 311.438C144.195 311.438 170.31 368.272 186.804 409.98C192.302 423.959 205.817 433.126 220.937 433.126H236.056Z" fill="#FF8B66"/>
<path d="M330.666 483.313C330.666 483.313 330.895 502.793 318.067 503.022C300.198 503.48 299.511 484.001 279.123 484.688C258.735 485.376 216.813 490.418 203.527 458.563C196.654 442.063 206.046 420.98 183.826 405.167C161.605 389.355 172.372 371.48 183.826 361.855C195.28 352.23 178.786 341.917 190.927 337.105C193.676 335.959 196.654 336.188 199.174 336.876C200.778 337.334 202.152 338.251 203.527 339.167C209.941 343.292 214.293 350.626 214.293 350.626C247.968 258.271 307.987 246.125 307.987 246.125L367.319 266.521C368.693 410.209 330.666 483.313 330.666 483.313Z" fill="#164353"/>
<path d="M387.478 131.084C387.478 131.084 373.733 135.667 354.032 132.688C334.331 129.709 327.917 117.334 314.172 125.354C293.326 137.271 303.176 178.521 308.445 199.834C310.278 207.855 312.798 228.709 308.216 246.125C308.216 246.125 335.935 267.667 367.548 266.521L384.729 228.938C384.5 228.938 422.069 184.021 387.478 131.084Z" fill="#CFD8DC"/>
<path d="M352.2 96.7085C352.2 96.7085 354.49 116.188 347.389 133.834C347.389 133.834 357.698 148.959 367.548 139.104C367.548 139.104 368.464 121.229 379.46 101.063C386.791 87.5418 352.2 96.7085 352.2 96.7085Z" fill="#EF6E4B"/>
<path d="M336.622 97.3961C336.622 97.3961 327.917 91.8961 328.834 100.375C329.979 110.229 339.6 112.063 340.517 108.625C341.662 105.188 336.622 97.3961 336.622 97.3961Z" fill="#FF8B66"/>
<path d="M386.333 86.6252C386.333 86.6252 391.831 77.9169 394.579 85.9377C397.787 95.3335 389.998 101.063 387.478 98.5419C384.958 96.021 386.333 86.6252 386.333 86.6252Z" fill="#FF8B66"/>
<path d="M368.235 126.729C352.429 130.167 341.433 121.917 334.56 91.2086C330.895 75.396 336.851 63.7085 354.49 59.8127C372.13 55.9168 381.751 63.9377 385.187 79.7502C392.747 112.75 384.5 123.063 368.235 126.729Z" fill="#FF8B66"/>
<path d="M382.438 91.8961C383.126 93.5003 381.98 95.3336 380.148 96.0211C378.315 96.7086 376.253 96.2503 375.566 94.6461C374.879 93.0419 376.024 91.2086 377.857 90.5211C379.918 89.8336 381.98 90.2919 382.438 91.8961Z" fill="#DB614D"/>
<path d="M350.367 99.9169C350.596 101.521 349.222 103.125 347.16 103.354C345.098 103.584 343.266 102.667 343.036 101.063C342.807 99.4586 344.182 97.8544 346.244 97.6252C348.305 97.1669 350.138 98.3127 350.367 99.9169Z" fill="#DB614D"/>
<path d="M371.672 77.4585C371.442 77.4585 371.442 77.4585 371.213 77.2294C368.464 75.396 364.799 76.3127 364.57 76.3127C364.112 76.5419 363.654 76.0835 363.654 75.6252C363.654 75.1669 363.883 74.7085 364.341 74.7085C364.57 74.7085 368.923 73.5627 372.13 75.8544C372.588 76.0835 372.588 76.5419 372.359 77.0002C372.13 77.4585 371.901 77.4585 371.672 77.4585Z" fill="#0E3944"/>
<path d="M341.891 84.1043C341.662 84.1043 341.662 84.1043 341.433 83.8752C340.975 83.646 340.975 83.1877 341.204 82.7293C343.266 79.2918 347.618 78.3752 347.847 78.3752C348.305 78.3752 348.763 78.6043 348.763 79.0627C348.763 79.521 348.534 79.9794 348.076 79.9794C348.076 79.9794 344.182 80.6669 342.578 83.4168C342.578 83.8752 342.349 84.1043 341.891 84.1043Z" fill="#0E3944"/>
<path d="M372.359 86.1668C372.817 88.2293 372.359 89.8335 371.213 90.0627C370.068 90.2918 368.923 88.9168 368.464 86.8543C368.006 84.7918 368.464 83.1877 369.61 82.9585C370.526 82.7293 371.901 84.1043 372.359 86.1668Z" fill="#1A4850"/>
<path d="M350.367 90.7502C350.825 92.8127 350.367 94.4169 349.222 94.6461C348.076 94.8752 346.931 93.5002 346.473 91.4377C346.014 89.3752 346.473 87.771 347.618 87.5419C348.763 87.5419 349.909 88.9169 350.367 90.7502Z" fill="#1A4850"/>
<path d="M357.469 109.313C357.469 109.313 367.548 108.396 371.901 104.729C371.901 104.729 370.755 112.521 365.257 113.209C359.759 113.667 357.469 109.313 357.469 109.313Z" fill="#1A4850"/>
<path d="M366.861 86.3961C366.861 86.3961 367.319 81.3544 369.152 81.1252C371.213 81.1252 373.504 84.7919 373.504 84.7919L376.024 82.7294L373.275 83.6461C373.275 83.6461 370.755 79.7502 368.923 79.9794C366.174 80.6669 366.861 86.3961 366.861 86.3961Z" fill="#1A4850"/>
<path d="M351.742 90.2919C351.742 90.2919 349.222 85.7086 347.389 86.6252C345.556 87.3127 345.098 91.8961 345.098 91.8961L341.891 90.9794L344.869 90.7502C344.869 90.7502 345.327 86.1669 347.16 85.7086C349.68 85.0211 351.742 90.2919 351.742 90.2919Z" fill="#1A4850"/>
<path d="M362.508 100.146L361.592 98.542C362.966 97.8545 362.966 96.9378 362.966 96.2503C362.737 95.3336 362.05 94.6461 361.363 94.6461C361.134 94.6461 360.676 94.8753 360.676 95.5628L359.072 94.8753C359.759 93.042 361.134 92.8128 361.592 93.042C362.966 93.042 364.341 94.417 364.57 96.0211C365.028 97.8545 364.341 99.2295 362.508 100.146Z" fill="#DB614D"/>
<path d="M337.768 102.896C337.768 102.896 332.957 85.0211 335.706 72.4169C335.706 72.4169 349.451 53.396 375.795 62.7918C375.795 62.7918 383.584 75.396 387.478 93.0419C387.478 93.0419 388.394 86.6252 385.875 72.646C383.355 58.4377 370.755 49.7293 353.574 52.4793C336.393 55.2293 318.067 72.4169 337.768 102.896Z" fill="#0E3944"/>
<path d="M365.486 58.8959C365.486 58.8959 366.632 63.4793 362.05 75.6251C362.05 75.6251 358.843 72.1876 354.949 75.6251C351.054 79.0627 343.495 77.9168 340.746 79.7502C337.997 81.5835 337.997 85.7085 337.997 85.7085C337.997 85.7085 335.706 80.4377 337.997 74.2501C337.997 74.2501 332.957 80.896 333.644 88.9168C333.644 88.9168 326.772 87.771 327.001 76.3126C327.23 64.8543 343.724 46.0626 362.05 47.4376C380.377 48.8126 384.729 77.6877 384.729 77.6877C384.729 77.6877 383.126 76.3126 380.377 77.0001C380.377 77.0001 379.918 70.8126 375.795 63.021C375.795 63.021 377.628 68.521 375.795 74.7085C375.795 74.7085 370.755 71.9585 366.632 72.8751C366.632 72.646 369.152 67.6043 365.486 58.8959Z" fill="#0E3944"/>
<path d="M309.362 129.021C318.296 121.917 325.168 130.854 327.001 143.229C328.604 155.604 312.569 228.709 299.969 226.188C295.159 225.042 293.097 206.021 293.097 206.021C293.097 206.021 297.908 185.396 301.115 154.459C302.718 140.25 304.551 132.688 309.362 129.021Z" fill="#FF8B66"/>
<path d="M283.246 215.875C271.105 204.417 249.572 166.375 244.074 146.896L253.237 143.229C253.237 143.229 280.727 182.646 293.326 192.5C305.925 202.355 310.278 213.584 304.78 222.98C299.053 232.605 285.766 218.396 283.246 215.875Z" fill="#FF8B66"/>
<path d="M242.699 130.396C242.699 129.709 243.157 129.479 243.616 129.25C243.616 129.25 243.387 129.25 243.387 129.021C238.805 125.584 226.206 116.417 223.457 117.334C220.937 118.25 225.518 119.625 231.933 125.584C231.474 125.354 220.02 120.084 217.042 122.375C214.751 123.979 218.188 122.146 230.329 130.167C230.329 130.167 220.937 126.729 218.417 128.334C216.126 129.709 218.646 130.167 221.853 131.542C222.311 131.771 222.769 132 223.227 132C223.227 132 220.708 132.688 225.289 135.209C229.184 137.5 236.743 142.542 241.554 147.584C242.012 148.042 242.47 148.5 242.928 148.73V130.396H242.699Z" fill="#FF8B66"/>
<path d="M243.157 129.25C244.303 129.938 244.761 130.625 244.761 130.625C244.761 130.625 242.699 134.292 245.448 139.104C245.677 138.875 240.408 135.438 243.157 129.25Z" fill="#EF6E4B"/>
<path d="M232.62 136.354C231.474 135.667 225.518 132.229 222.998 132.459C222.54 132.229 222.082 132 221.624 132C223.457 129.709 231.474 135.438 232.62 136.354Z" fill="#EF6E4B"/>
<path d="M244.99 124.438C244.761 124.667 244.303 124.896 243.845 124.896C242.928 124.896 242.241 124.209 242.241 123.292L242.928 100.146C242.928 99.2294 243.616 98.5419 244.532 98.5419C245.448 98.5419 246.135 99.2294 246.135 100.146L245.448 123.292C245.448 123.75 245.219 124.209 244.99 124.438Z" fill="#FFB454"/>
<path d="M243.616 124.896C244.074 124.896 244.532 124.667 244.761 124.438C244.99 124.209 245.219 123.75 245.219 123.292L245.906 100.146C245.906 99.2294 245.219 98.5419 244.303 98.5419L243.616 124.896Z" fill="#FF8659"/>
<path d="M252.092 104.959C252.092 104.959 252.092 105.188 252.092 104.959C251.404 105.417 250.717 105.417 250.259 105.188L244.303 101.979L238.347 104.959C237.889 105.188 237.201 105.188 236.743 104.729C236.285 104.271 236.056 103.813 236.056 103.125L237.43 96.4794L232.849 91.6669C232.391 91.2086 232.391 90.5211 232.391 90.0627C232.62 89.3752 233.078 89.1461 233.765 88.9169L240.408 88.2294L243.616 82.271C243.845 81.8127 244.532 81.3544 244.99 81.3544C245.677 81.3544 246.135 81.8127 246.365 82.271L249.113 88.4585L255.757 89.6044C256.444 89.6044 256.902 90.0627 257.131 90.7502C257.36 91.4377 257.131 91.8961 256.673 92.3544L251.633 96.9377L252.55 103.584C252.779 104.042 252.55 104.5 252.092 104.959Z" fill="#FFDD54"/>
<path d="M242.699 154.917C240.867 154.917 239.492 153.313 239.492 151.48L240.408 123.75C240.408 122.834 241.096 122.146 242.012 122.146H245.219C246.135 122.146 246.823 122.834 246.823 123.75L245.906 151.48C246.135 153.542 244.532 154.917 242.699 154.917Z" fill="#6B61B1"/>
<path d="M267.669 104.042L266.524 105.188L265.378 104.042C264.691 103.354 263.775 103.354 263.087 104.042C262.4 104.729 262.4 105.646 263.087 106.334L264.233 107.48L263.087 108.625C262.4 109.313 262.4 110.23 263.087 110.917C263.775 111.605 264.691 111.605 265.378 110.917L266.524 109.771L267.669 110.917C268.356 111.605 269.273 111.605 269.96 110.917C270.647 110.23 270.647 109.313 269.96 108.625L268.814 107.48L269.96 106.334C270.647 105.646 270.647 104.729 269.96 104.042C269.273 103.354 268.356 103.584 267.669 104.042Z" fill="#FFB454"/>
<path d="M255.986 116.875C256.872 116.875 257.589 116.157 257.589 115.271C257.589 114.385 256.872 113.667 255.986 113.667C255.1 113.667 254.382 114.385 254.382 115.271C254.382 116.157 255.1 116.875 255.986 116.875Z" fill="#FFB454"/>
<path d="M259.422 101.521C260.308 101.521 261.026 100.803 261.026 99.9169C261.026 99.031 260.308 98.3127 259.422 98.3127C258.536 98.3127 257.819 99.031 257.819 99.9169C257.819 100.803 258.536 101.521 259.422 101.521Z" fill="#FFB454"/>
<path d="M233.536 113.896L232.391 115.042L231.245 113.896C230.558 113.209 229.642 113.209 228.954 113.896C228.267 114.584 228.267 115.5 228.954 116.188L230.1 117.334L228.954 118.479C228.267 119.167 228.267 120.084 228.954 120.771C229.642 121.459 230.558 121.459 231.245 120.771L232.391 119.625L233.536 120.771C234.223 121.459 235.14 121.459 235.827 120.771C236.514 120.084 236.514 119.167 235.827 118.479L234.681 117.334L235.827 116.188C236.514 115.5 236.514 114.584 235.827 113.896C235.14 113.209 234.223 113.209 233.536 113.896Z" fill="#FFDD54"/>
<path d="M228.725 97.6252L227.58 98.7711L226.435 97.6252C225.747 96.9377 224.831 96.9377 224.144 97.6252C223.457 98.3127 223.457 99.2294 224.144 99.9169L225.289 101.063L224.144 102.209C223.457 102.896 223.457 103.813 224.144 104.5C224.831 105.188 225.747 105.188 226.435 104.5L227.58 103.354L228.725 104.5C229.413 105.188 230.329 105.188 231.016 104.5C231.703 103.813 231.703 102.896 231.016 102.209L229.871 101.063L231.016 99.9169C231.703 99.2294 231.703 98.3127 231.016 97.6252C230.558 96.9377 229.413 96.9377 228.725 97.6252Z" fill="#FFDD54"/>
<path d="M222.54 113.896C223.426 113.896 224.144 113.178 224.144 112.292C224.144 111.406 223.426 110.688 222.54 110.688C221.655 110.688 220.937 111.406 220.937 112.292C220.937 113.178 221.655 113.896 222.54 113.896Z" fill="#FFDD54"/>
<path d="M244.532 101.979L250.488 105.188C250.946 105.417 251.633 105.417 252.092 105.188C252.092 105.188 252.321 105.188 252.321 104.959C252.779 104.5 252.779 104.042 252.779 103.584L251.862 96.9377L256.902 92.3544C257.36 91.8961 257.589 91.2086 257.36 90.7502C257.131 90.0627 256.673 89.6044 255.986 89.6044L249.343 88.4585L246.594 82.271C246.365 81.8127 245.677 81.3544 245.219 81.3544L244.532 101.979Z" fill="#FFB454"/>
<path d="M242.699 154.917C244.532 154.917 245.906 153.542 246.135 151.709L247.052 123.979C247.052 123.063 246.365 122.375 245.448 122.375H243.845L242.699 154.917Z" fill="#453D81"/>
<path d="M244.532 122.834C244.532 122.834 241.096 121.917 242.928 132L246.365 151.479C247.739 151.709 249.343 151.25 250.488 150.563C251.862 149.875 253.008 148.5 253.695 146.438C256.444 136.354 245.906 135.209 244.532 122.834Z" fill="#FF8B66"/>
<path d="M280.727 321.063C280.727 322.438 279.581 323.584 278.207 323.584C276.832 323.584 275.687 322.438 275.687 321.063C275.687 319.688 276.832 318.542 278.207 318.542C279.581 318.542 280.727 319.688 280.727 321.063Z" fill="#6097B2"/>
<path d="M324.252 337.792C324.252 339.167 323.106 340.313 321.732 340.313C320.357 340.313 319.212 339.167 319.212 337.792C319.212 336.417 320.357 335.271 321.732 335.271C323.106 335.271 324.252 336.417 324.252 337.792Z" fill="#6097B2"/>
<path d="M361.363 346.73C361.363 348.105 360.217 349.251 358.843 349.251C357.469 349.251 356.323 348.105 356.323 346.73C356.323 345.355 357.469 344.209 358.843 344.209C360.217 344.209 361.363 345.355 361.363 346.73Z" fill="#6097B2"/>
<path d="M304.322 288.98C304.322 290.355 303.176 291.501 301.802 291.501C300.427 291.501 299.282 290.355 299.282 288.98C299.282 287.605 300.427 286.459 301.802 286.459C303.176 286.459 304.322 287.605 304.322 288.98Z" fill="#6097B2"/>
<path d="M310.049 314.876C311.441 314.876 312.569 313.747 312.569 312.355C312.569 310.963 311.441 309.834 310.049 309.834C308.657 309.834 307.529 310.963 307.529 312.355C307.529 313.747 308.657 314.876 310.049 314.876Z" fill="#6097B2"/>
<path d="M351.283 325.417C351.283 326.792 350.138 327.938 348.763 327.938C347.389 327.938 346.244 326.792 346.244 325.417C346.244 324.042 347.389 322.896 348.763 322.896C350.138 322.896 351.283 324.042 351.283 325.417Z" fill="#6097B2"/>
<path d="M356.552 285.313C356.552 286.688 355.407 287.834 354.032 287.834C352.658 287.834 351.512 286.688 351.512 285.313C351.512 283.938 352.658 282.792 354.032 282.792C355.407 282.792 356.552 284.167 356.552 285.313Z" fill="#6097B2"/>
<path d="M328.833 279.584C330.225 279.584 331.353 278.455 331.353 277.063C331.353 275.671 330.225 274.542 328.833 274.542C327.442 274.542 326.314 275.671 326.314 277.063C326.314 278.455 327.442 279.584 328.833 279.584Z" fill="#6097B2"/>
<path d="M258.964 368.73C258.964 370.105 257.819 371.251 256.444 371.251C255.07 371.251 253.924 370.105 253.924 368.73C253.924 367.355 255.07 366.209 256.444 366.209C257.819 366.209 258.964 367.355 258.964 368.73Z" fill="#6097B2"/>
<path d="M224.144 358.188C224.144 359.563 222.998 360.709 221.624 360.709C220.249 360.709 219.104 359.563 219.104 358.188C219.104 356.813 220.249 355.667 221.624 355.667C222.998 355.897 224.144 356.813 224.144 358.188Z" fill="#6097B2"/>
<path d="M203.297 339.167C202.839 339.855 202.152 340.313 201.236 340.313C199.861 340.313 198.716 339.167 198.716 337.792C198.716 337.563 198.716 337.105 198.945 336.876C200.548 337.563 201.923 338.251 203.297 339.167Z" fill="#6097B2"/>
<path d="M269.044 403.105C270.435 403.105 271.563 401.976 271.563 400.584C271.563 399.192 270.435 398.063 269.044 398.063C267.652 398.063 266.524 399.192 266.524 400.584C266.524 401.976 267.652 403.105 269.044 403.105Z" fill="#6097B2"/>
<path d="M209.024 435.188C209.024 436.563 207.879 437.709 206.505 437.709C205.13 437.709 203.985 436.563 203.985 435.188C203.985 433.813 205.13 432.668 206.505 432.668C207.879 432.668 209.024 433.813 209.024 435.188Z" fill="#6097B2"/>
<path d="M232.162 416.626C233.553 416.626 234.681 415.497 234.681 414.105C234.681 412.713 233.553 411.584 232.162 411.584C230.77 411.584 229.642 412.713 229.642 414.105C229.642 415.497 230.77 416.626 232.162 416.626Z" fill="#6097B2"/>
<path d="M193.905 398.063C195.297 398.063 196.425 396.935 196.425 395.542C196.425 394.15 195.297 393.022 193.905 393.022C192.513 393.022 191.385 394.15 191.385 395.542C191.385 396.935 192.513 398.063 193.905 398.063Z" fill="#6097B2"/>
<path d="M227.122 468.876C227.122 470.251 225.976 471.397 224.602 471.397C223.227 471.397 222.082 470.251 222.082 468.876C222.082 467.501 223.227 466.355 224.602 466.355C225.976 466.355 227.122 467.501 227.122 468.876Z" fill="#6097B2"/>
<path d="M250.488 340.313C250.488 341.688 249.343 342.834 247.968 342.834C246.594 342.834 245.448 341.688 245.448 340.313C245.448 338.938 246.594 337.792 247.968 337.792C249.343 337.792 250.488 338.938 250.488 340.313Z" fill="#6097B2"/>
<path d="M273.854 299.063C273.854 300.438 272.709 301.584 271.334 301.584C269.96 301.584 268.814 300.438 268.814 299.063C268.814 297.688 269.96 296.542 271.334 296.542C272.709 296.542 273.854 297.688 273.854 299.063Z" fill="#6097B2"/>
<path d="M300.427 264.688C300.427 266.063 299.282 267.209 297.908 267.209C296.533 267.209 295.388 266.063 295.388 264.688C295.388 263.313 296.533 262.167 297.908 262.167C299.511 262.396 300.427 263.313 300.427 264.688Z" fill="#6097B2"/>
<path d="M246.594 314.647C246.594 316.021 245.448 317.167 244.074 317.167C242.699 317.167 241.554 316.021 241.554 314.647C241.554 313.272 242.699 312.126 244.074 312.126C245.448 312.126 246.594 313.272 246.594 314.647Z" fill="#6097B2"/>
<path d="M276.374 274.542C276.374 275.917 275.229 277.063 273.854 277.063C272.48 277.063 271.334 275.917 271.334 274.542C271.334 273.167 272.48 272.021 273.854 272.021C275.229 272.021 276.374 273.167 276.374 274.542Z" fill="#6097B2"/>
<path d="M229.642 384.772C229.642 386.147 228.496 387.293 227.122 387.293C225.747 387.293 224.602 386.147 224.602 384.772C224.602 383.397 225.747 382.251 227.122 382.251C228.496 382.251 229.642 383.397 229.642 384.772Z" fill="#6097B2"/>
<path d="M198.945 363.23C198.945 364.605 197.8 365.751 196.425 365.751C195.051 365.751 193.905 364.605 193.905 363.23C193.905 361.855 195.051 360.709 196.425 360.709C197.8 360.709 198.945 361.855 198.945 363.23Z" fill="#6097B2"/>
<path d="M285.537 358.417C286.929 358.417 288.057 357.289 288.057 355.896C288.057 354.504 286.929 353.376 285.537 353.376C284.146 353.376 283.017 354.504 283.017 355.896C283.017 357.289 284.146 358.417 285.537 358.417Z" fill="#6097B2"/>
<path d="M336.164 371.251C337.556 371.251 338.684 370.122 338.684 368.73C338.684 367.338 337.556 366.209 336.164 366.209C334.772 366.209 333.644 367.338 333.644 368.73C333.644 370.122 334.772 371.251 336.164 371.251Z" fill="#6097B2"/>
<path d="M336.164 299.063C336.164 300.438 335.019 301.584 333.644 301.584C332.27 301.584 331.124 300.438 331.124 299.063C331.124 297.688 332.27 296.542 333.644 296.542C335.019 296.542 336.164 297.688 336.164 299.063Z" fill="#6097B2"/>
<path d="M365.486 304.105C365.486 305.48 364.341 306.626 362.966 306.626C361.592 306.626 360.447 305.48 360.447 304.105C360.447 302.73 361.592 301.584 362.966 301.584C364.341 301.584 365.486 302.73 365.486 304.105Z" fill="#6097B2"/>
<path d="M306.842 387.292C306.842 388.667 305.696 389.813 304.322 389.813C302.947 389.813 301.802 388.667 301.802 387.292C301.802 385.917 302.947 384.772 304.322 384.772C305.696 384.772 306.842 385.917 306.842 387.292Z" fill="#6097B2"/>
<path d="M283.017 433.126C284.409 433.126 285.537 431.997 285.537 430.605C285.537 429.213 284.409 428.084 283.017 428.084C281.626 428.084 280.498 429.213 280.498 430.605C280.498 431.997 281.626 433.126 283.017 433.126Z" fill="#6097B2"/>
<path d="M245.677 440.23C247.069 440.23 248.197 439.101 248.197 437.709C248.197 436.317 247.069 435.188 245.677 435.188C244.286 435.188 243.157 436.317 243.157 437.709C243.157 439.101 244.286 440.23 245.677 440.23Z" fill="#6097B2"/>
<path d="M348.763 403.105C350.155 403.105 351.283 401.976 351.283 400.584C351.283 399.192 350.155 398.063 348.763 398.063C347.372 398.063 346.244 399.192 346.244 400.584C346.244 401.976 347.372 403.105 348.763 403.105Z" fill="#6097B2"/>
<path d="M317.379 419.147C317.379 420.522 316.234 421.668 314.86 421.668C313.485 421.668 312.34 420.522 312.34 419.147C312.34 417.772 313.485 416.626 314.86 416.626C316.234 416.626 317.379 417.772 317.379 419.147Z" fill="#6097B2"/>
<path d="M266.524 473.689C266.524 475.064 265.378 476.209 264.004 476.209C262.629 476.209 261.484 475.064 261.484 473.689C261.484 472.314 262.629 471.168 264.004 471.168C265.378 471.168 266.524 472.314 266.524 473.689Z" fill="#6097B2"/>
<path d="M301.802 463.605C303.194 463.605 304.322 462.477 304.322 461.084C304.322 459.692 303.194 458.563 301.802 458.563C300.41 458.563 299.282 459.692 299.282 461.084C299.282 462.477 300.41 463.605 301.802 463.605Z" fill="#6097B2"/>
<path d="M338.226 449.168C339.617 449.168 340.746 448.039 340.746 446.647C340.746 445.255 339.617 444.126 338.226 444.126C336.834 444.126 335.706 445.255 335.706 446.647C335.706 448.039 336.834 449.168 338.226 449.168Z" fill="#6097B2"/>
<path d="M324.252 488.584C324.252 489.959 323.106 491.105 321.732 491.105C320.357 491.105 319.212 489.959 319.212 488.584C319.212 487.209 320.357 486.064 321.732 486.064C323.106 486.064 324.252 487.209 324.252 488.584Z" fill="#6097B2"/>
<path d="M321.503 617.376H281.414C278.894 609.814 283.705 602.48 282.788 595.834C281.414 584.605 287.828 590.793 287.828 590.793C288.973 578.876 305.696 576.584 305.696 581.855C305.467 589.647 306.842 594.689 309.133 597.897C313.714 604.543 321.045 604.314 322.419 609.126C322.648 609.584 322.648 610.043 322.648 610.501C324.023 616.23 321.503 617.376 321.503 617.376Z" fill="#164353"/>
<path d="M322.648 610.501C314.401 612.335 295.159 609.814 294.471 605.001C293.784 600.418 304.093 598.126 309.133 597.897C313.714 604.543 321.045 604.314 322.419 609.126C322.648 609.585 322.648 610.043 322.648 610.501Z" fill="#205260"/>
<path d="M156.565 306.167C152.213 302.271 145.34 308.688 145.34 308.688C145.34 308.688 149.005 314.188 146.715 316.48C144.195 318.772 141.446 313.501 136.635 315.792C136.177 316.022 135.948 316.251 135.49 316.48C131.824 318.772 127.93 323.355 124.723 326.792C124.036 327.48 123.578 328.167 122.89 328.855C119.225 332.751 109.833 334.813 108 324.73C106.167 314.647 117.621 302.73 130.221 291.73C142.82 280.73 150.838 287.376 150.838 287.376C150.838 287.376 153.587 291.959 153.587 294.938C153.587 297.688 156.107 299.292 157.481 302.042C159.314 304.563 156.565 306.167 156.565 306.167Z" fill="#164353"/>
<path d="M135.49 316.709C131.824 319.001 127.93 323.584 124.723 327.021C119.912 328.167 115.789 327.709 115.102 323.355C113.498 312.584 134.802 299.063 133.199 306.626C132.283 310.292 133.886 313.959 135.49 316.709Z" fill="#205260"/>
</g>
<path d="M503.097 257.651C492.23 245.382 480.166 251.767 475.643 238.599C472.791 230.297 481.847 226.226 481.847 226.226C491.06 227.222 505.165 224.937 511.879 223.27C518.594 221.604 516.732 224.484 516.732 224.484C517.298 224.289 517.865 224.095 518.432 223.9C522.584 222.154 525.505 220.51 524.788 223.957C523.886 227.787 512.094 233.118 512.094 233.118C530.831 229.562 532.005 224.678 531.67 228.314C530.878 233.386 515.293 238.74 514.726 238.935C526.391 238.768 531.763 235.962 530.283 239.031C528.802 242.1 508.637 245.187 501.061 246.189C499.262 246.487 498.314 246.493 498.314 246.493C507.631 256.094 503.097 257.651 503.097 257.651Z" fill="#EF6E4B"/>
<defs>
<filter id="filter0_i" x="0.405579" y="46.1832" width="591.075" height="574.591" filterUnits="userSpaceOnUse" color-interpolation-filters="sRGB">
<feFlood flood-opacity="0" result="BackgroundImageFix"/>
<feBlend mode="normal" in="SourceGraphic" in2="BackgroundImageFix" result="shape"/>
<feColorMatrix in="SourceAlpha" type="matrix" values="0 0 0 0 0 0 0 0 0 0 0 0 0 0 0 0 0 0 127 0" result="hardAlpha"/>
<feOffset dy="4"/>
<feGaussianBlur stdDeviation="17"/>
<feComposite in2="hardAlpha" operator="arithmetic" k2="-1" k3="1"/>
<feColorMatrix type="matrix" values="0 0 0 0 0 0 0 0 0 0 0 0 0 0 0 0 0 0 0.25 0"/>
<feBlend mode="normal" in2="shape" result="effect1_innerShadow"/>
</filter>
<linearGradient id="paint0_linear" x1="-40.5" y1="186.5" x2="958.054" y2="417.015" gradientUnits="userSpaceOnUse">
<stop stop-color="#90D7BD"/>
<stop offset="1" stop-color="#B2DF31" stop-opacity="0"/>
</linearGradient>
<clipPath id="clip0">
<rect width="374.088" height="617.376" fill="white" transform="translate(108)"/>
</clipPath>
</defs>
</svg>
