<svg width="1440" height="470" viewBox="0 0 1440 470" fill="none" xmlns="http://www.w3.org/2000/svg">
<rect y="-116" width="1440" height="586" fill="white"/>
<g filter="url(#filter0_i)">
<path d="M-1 99.3208C8.03177 149.483 1401.03 127.808 1438 107C1438 173 1438 430 1438 470H-1V99.3208Z" fill="url(#paint0_linear)"/>
</g>
<path d="M89.0287 239.382L72.0898 234.416L77.0718 217.532C79.7289 208.262 74.4147 198.33 65.1149 195.682C55.8151 193.033 45.851 198.33 43.1939 207.6L38.2118 224.484L21.605 219.849C12.3052 217.201 2.34108 222.498 -0.316015 231.768C-2.97311 241.037 2.34108 250.969 11.6409 253.618L28.5799 258.584L23.5978 275.468C20.9407 284.738 26.2549 294.67 35.5547 297.318C44.8546 299.967 54.8187 294.67 57.4757 285.4L62.4578 268.516L79.3968 273.482C88.6966 276.13 98.6607 270.833 101.318 261.563C103.975 251.963 98.6607 242.031 89.0287 239.382Z" fill="#FFDD54"/>
<path d="M214.359 105.093L197.421 100.159L202.403 83.3851C205.06 74.1758 199.746 64.3086 190.446 61.6773C181.146 59.0461 171.182 64.3086 168.525 73.518L163.543 90.2922L146.605 85.3586C137.305 82.7273 127.341 87.9898 124.684 97.1992C122.027 106.409 127.341 116.276 136.641 118.907L153.579 123.841L148.597 140.615C145.94 149.824 151.254 159.691 160.554 162.323C169.854 164.954 179.818 159.691 182.475 150.482L187.457 133.708L204.395 138.641C213.695 141.273 223.659 136.01 226.316 126.801C228.973 117.262 223.659 107.724 214.359 105.093Z" fill="#FFDD54"/>
<path d="M42.5 146C52.165 146 60 137.941 60 128C60 118.059 52.165 110 42.5 110C32.835 110 25 118.059 25 128C25 137.941 32.835 146 42.5 146Z" fill="#FFDD54"/>
<g filter="url(#filter1_d)">
<path d="M1388.01 271.848C1360.79 212.596 1357.09 147.753 1304.42 128.246C1275.33 117.473 1243.01 132.324 1232.53 160.626C1224.96 181.066 1230.05 203.515 1245.22 218.073C1223.65 220.811 1205.16 234.525 1197.59 254.966C1187.11 283.268 1201.96 315.587 1231.05 326.359C1284.51 346.157 1330.71 296.221 1388.01 271.848Z" fill="#F3705A"/>
<path d="M1401.79 256.386C1407.93 271.177 1402.4 286.114 1388.1 293.335C1384.05 287.366 1383.82 278.34 1376.75 275.72C1378.49 271.003 1379.95 267.072 1381.7 262.355C1387.99 264.684 1394.83 258.279 1401.79 256.386Z" fill="#F3705A"/>
<path d="M1272.79 146.037C1282.2 142.368 1290.64 143.707 1291.84 147.725C1293.82 152.035 1287.76 158.731 1278.65 161.614C1269.24 165.283 1260.8 163.944 1259.61 159.926C1257.62 155.616 1263.39 149.706 1272.79 146.037Z" fill="white"/>
</g>
<g filter="url(#filter2_d)">
<path d="M1428.51 265.457C1426.8 213.453 1444.11 164.607 1411.39 133.978C1393.32 117.063 1364.96 118 1348.5 135.581C1336.61 148.279 1333.43 166.369 1340.09 181.767C1323.37 177.113 1305.53 181.488 1293.64 194.186C1277.19 211.768 1278.12 240.133 1296.19 257.048C1329.4 288.134 1378.83 265.678 1428.51 265.457Z" fill="#5AEAF3"/>
</g>
<g filter="url(#filter3_d)">
<path d="M1440 258.5C1439.95 271.28 1434.69 280.397 1421.94 281.291C1420.81 275.649 1423.42 268.937 1419.03 264.823C1421.77 261.893 1424.06 259.451 1426.8 256.521C1430.71 260.178 1434.3 257.741 1440 258.5Z" fill="#5AEAF3"/>
</g>
<path d="M1382.63 137.293C1390.69 137.501 1396.48 141.095 1396.12 144.42C1396.25 148.203 1389.72 151.257 1382.13 150.562C1374.07 150.354 1368.27 146.76 1368.64 143.435C1368.51 139.652 1374.58 137.086 1382.63 137.293Z" fill="white"/>
<g filter="url(#filter4_d)">
<path d="M1438 156.5C1438 105.5 1440 53.5 1440 27.9995C1421.93 11.0848 1398.63 12.3743 1382.18 29.9557C1370.29 42.6533 1367.1 60.7431 1373.76 76.1413C1357.04 71.4875 1339.2 75.8627 1327.32 88.5607C1310.86 106.142 1311.8 134.508 1329.87 151.423C1363.08 182.509 1388.31 156.721 1438 156.5Z" fill="#F3C85A"/>
</g>
<path d="M1416.31 31.6677C1424.36 31.8752 1430.16 35.4698 1429.8 38.7949C1429.92 42.5773 1423.4 45.632 1415.8 44.9364C1407.75 44.7289 1401.95 41.1344 1402.31 37.8092C1402.19 34.0268 1408.26 31.4602 1416.31 31.6677Z" fill="white"/>
<defs>
<filter id="filter0_i" x="-1" y="99.3208" width="1439" height="374.679" filterUnits="userSpaceOnUse" color-interpolation-filters="sRGB">
<feFlood flood-opacity="0" result="BackgroundImageFix"/>
<feBlend mode="normal" in="SourceGraphic" in2="BackgroundImageFix" result="shape"/>
<feColorMatrix in="SourceAlpha" type="matrix" values="0 0 0 0 0 0 0 0 0 0 0 0 0 0 0 0 0 0 127 0" result="hardAlpha"/>
<feOffset dy="4"/>
<feGaussianBlur stdDeviation="17"/>
<feComposite in2="hardAlpha" operator="arithmetic" k2="-1" k3="1"/>
<feColorMatrix type="matrix" values="0 0 0 0 0 0 0 0 0 0 0 0 0 0 0 0 0 0 0.25 0"/>
<feBlend mode="normal" in2="shape" result="effect1_innerShadow"/>
</filter>
<filter id="filter1_d" x="1174.37" y="108.739" width="254.325" height="270.166" filterUnits="userSpaceOnUse" color-interpolation-filters="sRGB">
<feFlood flood-opacity="0" result="BackgroundImageFix"/>
<feColorMatrix in="SourceAlpha" type="matrix" values="0 0 0 0 0 0 0 0 0 0 0 0 0 0 0 0 0 0 127 0"/>
<feOffset dy="4"/>
<feGaussianBlur stdDeviation="2"/>
<feColorMatrix type="matrix" values="0 0 0 0 0 0 0 0 0 0 0 0 0 0 0 0 0 0 0.25 0"/>
<feBlend mode="normal" in2="BackgroundImageFix" result="effect1_dropShadow"/>
<feBlend mode="normal" in="SourceGraphic" in2="effect1_dropShadow" result="shape"/>
</filter>
<filter id="filter2_d" x="1259.47" y="103.349" width="230.644" height="231.644" filterUnits="userSpaceOnUse" color-interpolation-filters="sRGB">
<feFlood flood-opacity="0" result="BackgroundImageFix"/>
<feColorMatrix in="SourceAlpha" type="matrix" values="0 0 0 0 0 0 0 0 0 0 0 0 0 0 0 0 0 0 127 0"/>
<feOffset dy="4"/>
<feGaussianBlur stdDeviation="2"/>
<feColorMatrix type="matrix" values="0 0 0 0 0 0 0 0 0 0 0 0 0 0 0 0 0 0 0.25 0"/>
<feBlend mode="normal" in2="BackgroundImageFix" result="effect1_dropShadow"/>
<feBlend mode="normal" in="SourceGraphic" in2="effect1_dropShadow" result="shape"/>
</filter>
<filter id="filter3_d" x="1408.17" y="250.99" width="41.5513" height="42.0253" filterUnits="userSpaceOnUse" color-interpolation-filters="sRGB">
<feFlood flood-opacity="0" result="BackgroundImageFix"/>
<feColorMatrix in="SourceAlpha" type="matrix" values="0 0 0 0 0 0 0 0 0 0 0 0 0 0 0 0 0 0 127 0"/>
<feOffset dy="4"/>
<feGaussianBlur stdDeviation="2"/>
<feColorMatrix type="matrix" values="0 0 0 0 0 0 0 0 0 0 0 0 0 0 0 0 0 0 0.25 0"/>
<feBlend mode="normal" in2="BackgroundImageFix" result="effect1_dropShadow"/>
<feBlend mode="normal" in="SourceGraphic" in2="effect1_dropShadow" result="shape"/>
</filter>
<filter id="filter4_d" x="1293.15" y="0.0639648" width="213.898" height="215.678" filterUnits="userSpaceOnUse" color-interpolation-filters="sRGB">
<feFlood flood-opacity="0" result="BackgroundImageFix"/>
<feColorMatrix in="SourceAlpha" type="matrix" values="0 0 0 0 0 0 0 0 0 0 0 0 0 0 0 0 0 0 127 0"/>
<feOffset dy="4"/>
<feGaussianBlur stdDeviation="2"/>
<feColorMatrix type="matrix" values="0 0 0 0 0 0 0 0 0 0 0 0 0 0 0 0 0 0 0.25 0"/>
<feBlend mode="normal" in2="BackgroundImageFix" result="effect1_dropShadow"/>
<feBlend mode="normal" in="SourceGraphic" in2="effect1_dropShadow" result="shape"/>
</filter>
<linearGradient id="paint0_linear" x1="-124.31" y1="140.468" x2="1532.58" y2="1710.03" gradientUnits="userSpaceOnUse">
<stop offset="0.156039" stop-color="#90D7BD"/>
<stop offset="1" stop-color="#B2DF31" stop-opacity="0"/>
</linearGradient>
</defs>
</svg>
